<svg width="472" height="389" viewBox="0 0 472 389" fill="none" xmlns="http://www.w3.org/2000/svg">
<path d="M37.6724 36.2017C44.1666 13.8815 67.938 -1.57113 96.1001 0.127441C96.1001 0.12744 96.4212 0.144743 97.1909 0.167481C97.9343 0.189437 98.895 0.20992 100.132 0.228027C102.682 0.265339 105.693 0.284003 109.58 0.311035C117.109 0.36341 126.89 0.441992 137.829 0.787598C149.088 1.14335 160.092 2.6508 167.229 3.45557C175.429 4.38022 186.224 5.44225 203.542 6.13721C232.647 7.3051 287.105 11.306 313.154 14.689C319.844 15.5578 327.645 16.7707 334.937 18.7769C338.246 19.6874 345.079 21.7123 352.45 25.7524C357.02 28.2576 373.016 37.6254 380.09 55.8071C387.631 55.0425 396.272 55.4696 405.639 58.1089C424.834 63.5176 435.362 75.0257 439.683 80.7319C446.535 89.7815 448.574 98.4181 449.047 100.726C449.214 101.339 449.351 101.844 449.441 102.179C449.772 103.422 449.945 104.062 450.128 104.681C450.449 105.761 450.578 105.969 450.507 105.828C455.571 116.028 467.15 142.387 470.74 178.189C473.194 202.66 469.334 229.477 458.866 256.53C457.765 259.374 456.015 263.615 453.501 267.948C452.069 270.416 445.78 281.59 431.55 289.36C429.162 290.664 426.447 291.925 423.432 293.038C424.085 294.875 424.651 296.81 425.097 298.841C427.722 310.803 425.321 321.903 420.266 330.725C411.794 345.511 397.608 351.287 394.809 352.445C389.899 354.476 385.707 355.429 383.844 355.821C379.855 356.661 376.619 356.934 375.554 357.021C371.531 357.349 368.02 357.242 367.477 357.226C366.894 357.263 366.164 357.312 365.269 357.378C360.456 357.734 352.209 358.466 338.544 359.911C335.104 360.697 332.147 361.211 330.122 361.554C323.536 362.671 315.473 363.715 305.963 364.761C293.979 366.08 278.395 367.414 261.895 368.753C220.422 373.719 174.281 379.366 143.589 382.957C120.102 385.705 106.654 387.124 98.8179 387.831C95.0856 388.167 91.6395 388.435 88.6343 388.546C87.3856 388.593 84.4082 388.69 80.8257 388.476C79.2006 388.379 75.2594 388.103 70.3667 387.074C68.4958 386.68 52.1383 383.652 38.2544 370.607C31.5509 364.308 19.7992 350.117 21.1636 330.169C22.4737 311.021 35.0671 299.846 41.0611 295.485C43.5125 293.701 46.027 292.204 48.4517 290.953C48.3215 289.875 48.1891 288.763 48.0484 287.616C47.7694 285.342 47.4659 282.907 47.1421 280.336C45.0601 278.398 43.4596 276.685 42.3599 275.417C31.9322 263.398 28.2202 251.13 26.0308 240.29C22.6867 223.733 17.4417 201.963 12.8911 176.416C9.39469 156.785 4.30346 124.84 1.95851 107.123C0.741512 97.9275 0.164659 91.3307 0.0317543 86.4204C-0.0291575 84.1696 -0.0389023 81.0225 0.345231 77.6274C0.392785 77.2066 0.873222 71.8353 3.3257 65.73C3.95633 64.1601 5.82865 59.6383 9.73097 54.6245C11.6744 52.1276 15.6927 47.442 22.4331 43.105C25.9542 40.8394 31.0844 38.1468 37.6724 36.2017ZM107.533 179.146C97.5916 179.146 89.5327 187.205 89.5327 197.146C89.5327 197.57 89.5326 211.093 89.4253 231.678C89.3809 240.193 88.7057 243.876 87.9566 248.064C86.5682 245.345 84.5784 241.876 81.7544 238.314C78.6881 234.446 77.2725 232.383 74.1734 228.378C72.1468 225.76 69.7011 223.316 68.8296 222.397C68.2455 221.781 67.9541 221.44 67.8394 221.304C66.0962 218.114 62.6503 211.719 59.5835 206.907C57.2452 203.238 54.4444 199.014 53.0757 197.101C47.2909 189.017 36.047 187.152 27.9624 192.937C19.8781 198.722 18.0136 209.966 23.7984 218.05C24.5947 219.163 26.982 222.736 29.2251 226.255C31.5815 229.953 34.4248 235.237 36.4409 238.917C38.5449 242.758 41.2672 245.65 42.7085 247.169C44.5961 249.16 45.1201 249.659 45.7036 250.413C47.4139 252.623 50.7514 257.155 53.5444 260.678C55.2498 262.83 55.723 264.131 57.6528 268.11C59.9735 272.894 63.0558 277.054 65.3111 279.978C65.334 280.018 65.3607 280.063 65.3911 280.116C65.4509 280.219 65.5301 280.358 65.6138 280.501C65.7825 280.791 66.0127 281.181 66.2827 281.615C66.7067 282.295 66.909 282.612 66.9917 282.734C68.913 287.02 72.3138 290.192 76.3277 291.911C75.3548 294.609 74.1233 297.883 72.3911 302.607C71.2373 305.754 69.8813 308.122 67.0552 313.185C65.9268 315.206 63.7846 317.793 60.439 321.754C58.4923 324.059 57.7079 324.282 53.4097 328.211L52.9175 328.408L51.854 329.009C47.2823 331.597 44.5222 335.469 42.9487 337.563C36.9784 345.511 38.581 356.794 46.5288 362.765C54.412 368.687 65.5749 367.157 71.5825 359.377C73.523 358.27 75.5214 356.854 77.4312 355.028C78.5634 354.007 84.1639 349.456 87.9419 344.983C90.4757 341.983 95.2923 336.459 98.4898 330.731C100.885 326.441 103.852 321.377 106.19 315C108.439 308.867 110.316 303.959 111.69 299.828C112.587 297.131 113.269 294.581 113.8 292.592C114.374 290.444 114.757 289.015 115.191 287.692C117.278 281.331 119.857 273.495 120.623 267.208C120.693 266.625 120.912 265.566 121.501 263.125C121.999 261.056 122.747 258.046 123.302 254.926C124.255 249.572 125.363 243.68 125.424 231.866C125.532 211.2 125.533 197.612 125.533 197.146C125.533 187.205 117.473 179.146 107.533 179.146ZM349.333 188.467C345.506 187.925 341.1 187.952 336.768 188.926C335.111 189.299 333.628 189.681 332.426 189.994C331.151 190.325 330.271 190.556 329.389 190.759C329.188 190.806 328.995 190.847 328.567 190.941C328.2 191.021 327.68 191.137 327.12 191.273C326.061 191.53 324.34 191.983 322.465 192.756C319.016 194.18 311.124 198.428 309.139 208.528C308.404 212.268 308.075 216.555 308.199 220.535C308.297 223.687 308.72 229.962 311.8 235.481C312.18 236.162 312.421 236.588 312.653 237.018C312.796 237.283 312.894 237.475 312.962 237.612C313.054 238.2 313.133 238.915 313.329 240.452C313.52 241.955 313.879 244.7 314.745 247.55C314.857 247.921 316.253 253.352 317.443 256.429C319.354 261.369 322.567 265.888 324.011 267.951C324.158 268.16 324.276 268.33 324.377 268.478C324.88 273.335 325.846 277.082 326.118 278.359C326.128 278.431 326.153 278.611 326.187 278.928C326.252 279.523 326.312 280.223 326.399 281.212C326.547 282.904 326.782 285.708 327.239 288.326C327.747 291.237 327.803 291.571 327.765 292.363C327.626 295.265 327.779 298.336 327.932 300.781C328.14 304.092 328.259 305.181 328.427 308.043C328.482 308.981 328.516 309.797 328.538 310.501C326.831 312.274 325.488 313.739 324.585 314.718C324.236 315.098 324.003 315.347 323.844 315.515C316.923 321.505 315.55 331.886 320.948 339.512C326.691 347.626 337.926 349.547 346.04 343.804C347.713 342.619 348.995 341.292 349.354 340.925C349.937 340.33 350.56 339.656 351.061 339.113C352.123 337.96 353.321 336.65 354.883 335.042C354.97 334.967 355.645 334.39 356.131 333.945C357.552 332.644 359.767 330.394 361.541 326.941C363.973 322.205 364.364 317.245 364.493 314.734C364.649 311.68 364.519 308.524 364.366 305.927C363.992 299.578 363.61 296.477 363.724 294.087C363.788 292.759 363.779 291.491 363.728 290.304C364.161 290.228 364.455 290.176 364.694 290.135C365.371 290.119 366.482 290.113 368.173 290.113C368.833 290.113 369.485 290.076 370.126 290.006C369.937 293.525 369.807 297.518 369.738 302.571C366.96 311.606 371.675 321.354 380.646 324.707C389.958 328.186 400.329 323.458 403.809 314.147C404.17 313.181 404.798 311.471 405.21 309.29C405.595 307.256 405.675 305.424 405.716 304.169L405.722 303.986L405.724 303.802C405.792 298.268 405.93 294.356 406.12 291.118L406.145 290.669L406.149 290.22C406.184 286.057 406.184 282.33 406.125 279.427C406.095 277.992 406.049 276.589 405.968 275.359C405.933 274.819 405.802 272.244 405.063 269.728C404.519 267.876 404.51 267.143 403.561 263.047C403.553 263.005 403.511 262.777 403.447 262.255C403.353 261.492 403.311 261.002 403.176 259.769C403.07 258.797 402.901 257.342 402.613 255.825C402.343 254.407 401.81 252.036 400.624 249.508C399.795 247.742 398.812 245.913 398.195 244.744C397.647 243.706 397.262 242.957 396.975 242.353L396.718 241.792L396.454 241.208C395.113 238.33 393.503 236.147 392.827 235.205C391.967 234.008 391.77 233.713 391.551 233.308C391.594 233.388 391.538 233.322 391.019 231.893C390.6 230.739 389.755 228.343 388.439 225.8C388.305 225.541 388.131 225.175 387.787 224.417C387.502 223.791 387.015 222.7 386.487 221.636C385.525 219.697 383.475 215.779 379.709 212.45C379.253 212.046 378.962 211.782 378.74 211.569C378.698 211.528 378.662 211.49 378.629 211.458C378.219 210.561 377.353 208.701 376.432 207.115C375.151 204.907 372.808 201.419 368.789 198.602C367.291 197.552 365.751 196.422 363.837 194.861L362.994 194.164L362.543 193.798C357.862 190.098 352.462 188.911 349.333 188.467ZM267.774 166.468C264.179 166.13 261.001 166.407 258.828 166.661C255.304 167.072 255.845 167.114 254.189 167.26C248.137 167.796 242.954 169.52 239.356 170.712C238.866 170.875 238.643 170.921 237.156 171.354C236.058 171.674 234.179 172.236 232.19 173.107C228.162 174.87 221.25 179.02 218.514 187.992L218.387 188.422C217.126 192.847 217.263 197.559 217.499 200.043C217.876 204.028 218.402 211.276 219.661 216.355C220.479 219.654 221.698 222.498 222.375 224.086C223.213 226.057 223.433 226.596 223.573 227.072C224.742 231.065 225.164 232.894 225.286 234.36C225.537 237.395 226.12 240.159 226.571 242.141C227.129 244.595 227.378 245.468 227.667 246.918C228.31 250.149 229.336 252.954 230.049 254.828C230.907 257.08 231.303 258 231.747 259.349C232.687 262.206 233.831 264.682 234.659 266.424C235.339 267.858 235.754 268.706 236.088 269.44C236.107 269.559 236.13 269.698 236.152 269.858C236.34 271.203 236.486 272.661 236.754 275.001C237.172 278.645 237.938 285.407 240.178 291.126C240.396 291.682 240.615 292.286 240.835 292.91C240.449 296.633 241.216 300.506 243.275 303.962C243.318 304.338 243.369 304.837 243.422 305.476C243.603 307.651 243.759 310.625 243.902 314.277L244.033 317.622L245.358 320.696C247.148 324.85 247.09 325.749 249.614 332.777C251.568 338.217 257.842 346.915 269.444 346.282C271.952 346.145 276.237 345.973 279.693 345.729C281.51 345.601 283.489 345.43 285.353 345.181C286.912 344.973 289.599 344.567 292.233 343.625C298.933 341.227 304.24 336.92 308.186 332.102C311.825 327.659 314.387 323.504 316.597 319.774C319.754 314.447 322.406 307.851 322.342 298.052C322.252 284.103 322.24 277.898 320.838 271.696L320.699 271.095L320.522 270.395C318.704 263.475 314.911 257.777 310.696 253.541C310.589 253.368 310.412 253.074 310.154 252.622C309.839 252.07 309.15 250.833 308.466 249.721C307.729 248.522 306.683 246.934 305.294 245.299C304.317 244.149 303.316 243.096 302.299 242.133C302.868 240.067 303.292 237.922 303.55 235.801C304.067 231.561 304.177 225.406 301.822 219.249C300.762 216.477 300.31 214.408 298.591 208.849C297.419 205.059 295.767 202.087 294.805 200.374C293.68 198.37 293.434 197.944 293.193 197.356C292.909 196.663 292.702 195.941 292.046 193.734C291.52 191.963 290.598 188.867 289.028 185.719L289.067 185.798C289.069 185.797 288.963 185.543 288.615 184.621C288.286 183.752 287.601 181.909 286.685 180.057C285.17 176.996 280.235 168.168 269.037 166.613L268.499 166.544L267.774 166.468ZM198.911 180.856C195.362 178.338 191.147 177.144 186.924 177.33L186.515 177.352C180.039 177.774 176.033 181.39 174.485 183.04C172.786 184.85 171.842 186.605 171.414 187.467C170.514 189.279 170.089 190.881 169.907 191.624C169.536 193.136 169.35 194.593 169.256 195.822L169.221 196.334C169.083 198.678 168.739 200.065 167.993 202.786C167.781 202.005 167.571 201.17 167.368 200.333C167.17 199.519 166.779 197.841 166.548 196.994C166.499 196.814 166.293 196.046 165.97 195.174C165.916 195.029 165.346 193.399 164.193 191.607C163.922 191.186 161.833 187.751 157.5 185.446C154.84 184.031 150.602 182.676 145.54 183.679C140.531 184.672 137.201 187.484 135.359 189.637C132.307 193.205 131.566 196.962 131.456 197.46C131.187 198.672 131.103 199.652 131.071 200.097C131.003 201.045 131.025 201.805 131.034 202.079C131.055 202.735 131.106 203.317 131.132 203.604C132.005 213.044 131.081 230.258 130.954 238.606C130.644 258.868 130.256 260.489 129.949 261.936C129.1 265.932 128.394 268.3 127.701 269.814C126.069 273.377 124.546 276.784 121.934 282.098C120.079 285.872 119.07 289.436 118.577 291.063C118.426 291.558 118.326 291.878 118.258 292.086C115.831 295.971 114.763 299.824 114.19 302.173C113.876 303.461 113.602 304.797 113.422 305.647C113.215 306.627 113.069 307.284 112.917 307.861C112.592 309.1 112.146 310.444 111.524 312.319C111.247 313.154 110.904 314.191 110.602 315.193C110.355 316.013 110.014 317.198 109.745 318.515L109.634 319.087C107.854 328.867 114.34 338.239 124.12 340.02C133.786 341.779 143.053 335.464 144.986 325.874C145.001 325.819 145.027 325.725 145.069 325.586C145.207 325.129 145.397 324.545 145.692 323.658C146.213 322.087 147.062 319.573 147.738 317C148.128 315.513 148.427 314.118 148.644 313.091C148.889 311.934 149.018 311.306 149.165 310.705C149.185 310.622 149.205 310.548 149.222 310.482C150.464 308.465 151.346 306.433 151.963 304.763C151.972 304.816 151.98 304.87 151.989 304.924C152.813 310.065 154.523 315.52 157.615 319.923C164.44 329.643 175.22 328.699 179.638 327.365C187.998 324.84 192.137 318.413 193.845 315.203C195.688 311.739 196.722 308.148 197.219 306.417C197.65 304.917 197.971 303.384 198.218 301.915C198.68 303.604 199.166 305.124 199.549 306.312C200.175 308.255 200.542 309.377 200.824 310.472L201.058 311.384L201.387 312.266C202.247 314.578 202.836 316.409 203.302 317.958C203.364 318.399 203.446 318.954 203.56 319.586C203.905 321.491 204.439 323.613 205.304 326.155C208.508 335.565 218.735 340.597 228.145 337.393C237.555 334.189 242.586 323.963 239.382 314.552C239.055 313.592 238.989 313.203 238.984 313.172C238.975 313.124 238.964 313.055 238.932 312.808C238.924 312.746 238.882 312.42 238.855 312.217C238.82 311.958 238.767 311.572 238.692 311.128L238.519 310.112L238.232 309.122L237.672 307.237C237.114 305.4 236.399 303.197 235.435 300.554C234.873 298.51 234.238 296.586 233.813 295.268C233.251 293.524 232.928 292.456 232.716 291.533C231.952 288.195 230.786 283.048 228.62 278.006C227.328 274.999 226.234 272.032 224.848 268.342C223.601 265.021 222.42 261.565 221.171 257.364C220.709 255.809 220.31 254.3 219.812 252.436C219.339 250.668 218.777 248.583 218.095 246.421C217.093 243.246 216.206 240.149 215.375 236.916C215.006 235.482 214.595 234.19 214.28 233.223C213.909 232.086 213.729 231.567 213.498 230.82C213.12 229.604 213.025 229.055 212.991 228.659C212.705 225.32 212.171 222.488 211.766 220.36C211.343 218.136 211.053 216.64 210.843 214.845C210.377 210.851 209.684 205.208 208.087 199.942C208.071 199.842 208.045 199.685 208.015 199.462C207.979 199.195 207.723 197.064 207.522 195.831C207.336 194.687 206.794 191.309 205.033 187.929C204.063 186.069 202.221 183.206 198.911 180.856ZM278.877 270.449C279.751 271.982 281.797 275.649 285.127 278.883C285.405 279.153 285.586 279.396 285.683 279.556C285.7 279.584 285.712 279.608 285.721 279.625C285.843 280.142 285.991 280.9 286.104 283.282C286.24 286.144 286.293 290.481 286.343 298.286C286.353 299.72 286.185 300.282 286.161 300.365C286.137 300.444 286.079 300.658 285.627 301.42C283.679 304.708 282.219 306.99 280.335 309.29C280.25 309.394 280.172 309.482 280.103 309.556C279.985 309.57 279.861 309.584 279.732 309.597C279.612 307.027 279.474 304.608 279.299 302.501C279.176 301.019 279.02 299.479 278.806 298.042C278.737 297.578 278.628 296.883 278.456 296.052C278.454 295.032 278.367 293.998 278.185 292.958C277.528 289.197 275.567 282.767 273.699 277.997C273.687 277.964 273.632 277.802 273.548 277.479C273.446 277.084 273.33 276.557 273.208 275.877C273.06 275.064 272.929 274.17 272.799 273.184C273.542 272.91 274.315 272.604 275.11 272.256C276.394 271.694 277.639 271.066 278.842 270.388C278.854 270.408 278.866 270.428 278.877 270.449ZM429.242 218.184C427.686 208.69 418.887 202.046 409.257 203.245C399.393 204.473 392.391 213.467 393.62 223.332C394.044 226.734 395.58 231.843 397.549 235.911C398.103 237.054 398.66 238.039 399.108 238.798C399.515 239.489 399.985 240.245 400.194 240.585C400.423 240.959 400.548 241.176 400.605 241.275C401.601 243.752 402.247 245.446 402.584 246.649C402.908 247.802 403.254 248.82 403.53 249.597C403.668 249.987 403.803 250.356 403.913 250.655C404.031 250.978 404.115 251.207 404.199 251.438C404.309 251.745 404.374 251.943 404.409 252.049C404.763 254.135 405.301 256.245 406.067 258.256C406.708 259.939 408.145 263.303 411.102 266.28C413.879 269.075 418.285 271.723 424.001 271.862C429.156 271.986 432.942 269.99 434.824 268.772C436.75 267.524 438.091 266.175 438.752 265.477C439.304 264.895 439.772 264.336 440.106 263.929C442.291 262.582 443.922 261.16 444.933 260.233C445.756 259.479 446.505 258.731 446.972 258.266C447.529 257.711 447.775 257.467 447.987 257.271C448.449 256.842 448.928 256.452 450.079 255.501C450.686 255 451.51 254.317 452.417 253.5C455.459 252.076 461.599 248.278 463.408 239.84C465.49 230.12 459.298 220.552 449.579 218.468C444.025 217.278 438.521 218.79 434.434 222.117C433.602 222.571 432.785 223.077 431.989 223.638C431.546 222.849 431.155 222.21 430.884 221.768C430.474 221.099 430.313 220.845 430.114 220.506C430.019 220.347 429.97 220.257 429.952 220.222C429.911 220.138 429.824 219.945 429.711 219.649C429.602 219.361 429.494 219.047 429.401 218.745C429.326 218.501 429.273 218.307 429.242 218.184ZM348.354 231.006C350.433 234.228 352.749 236.58 354.503 238.198C354.631 238.472 354.788 238.817 355.009 239.303C355.346 240.045 355.862 241.179 356.469 242.352C356.552 242.512 356.664 242.759 357.183 244.188C357.601 245.339 358.472 247.811 359.858 250.383C360.664 251.879 361.488 253.177 362.185 254.21C362.025 254.219 361.867 254.228 361.714 254.238L361.096 254.279L360.482 254.363C359.442 254.505 358.471 254.674 357.797 254.794C356.377 251.411 354.655 248.95 353.501 247.303C352.702 246.162 352.09 245.264 351.596 244.458C351.076 243.61 350.966 243.307 351.017 243.44C350.282 241.54 350.767 242.294 349.232 237.225C349.219 237.146 349.152 236.776 349.041 235.9C348.989 235.492 348.846 234.318 348.749 233.583C348.65 232.844 348.523 231.962 348.354 231.006ZM257.538 203.988C257.935 205.324 258.738 208.216 259.879 211.001C261.164 214.137 262.776 216.86 263.413 217.995C264.183 219.368 264.225 219.568 264.201 219.494L264.589 220.777C265.463 223.711 266.585 227.693 267.842 231.155C267.836 231.233 267.828 231.321 267.817 231.417C266.585 231.754 265.327 232.2 264.054 232.777L263.422 233.074C262.849 233.352 262.252 233.667 261.641 234.007C261.314 232.554 261.197 231.815 261.162 231.385C260.702 225.84 259.244 220.789 258.123 216.958C257.257 214 256.049 211.281 255.498 209.985C254.784 208.309 254.648 207.872 254.603 207.692C254.394 206.848 254.221 205.605 254.03 203.827C255.5 203.399 256.425 203.211 257.276 203.129C257.352 203.374 257.439 203.656 257.538 203.988ZM415.014 83.1382L414.207 83.1567C406.969 83.4138 400.521 86.1861 396.867 87.9175L395.433 88.606C391.078 90.7105 388.308 93.7508 386.742 95.8306L386.445 96.2329C378.917 106.627 380.287 119.235 381.464 125.454C382.18 129.233 383.234 132.736 384.336 135.613C384.889 137.053 385.518 138.502 386.211 139.858C386.716 140.843 387.815 142.91 389.544 144.901C389.561 144.921 389.584 144.951 389.615 144.991C389.704 145.106 390.176 145.72 390.652 146.292C391.792 147.659 393.668 149.682 396.503 151.489C401.251 154.514 406.166 155.436 409.239 155.823C412.314 156.21 415.582 156.257 417.249 156.308C419.03 156.362 421.143 156.247 422.192 156.2C423.6 156.137 424.842 156.09 426.103 156.102C426.862 156.109 427.553 156.14 428.179 156.188C428.223 156.478 428.276 156.835 428.353 157.339C428.397 157.626 428.449 157.947 428.506 158.296C428.295 158.432 428.073 158.575 427.849 158.723C426.654 159.514 424.394 160.723 421.626 161.97C418.863 163.215 416.636 164.032 415.772 164.288C414.516 164.658 413.31 164.83 411.584 164.952C407.87 156.99 398.784 152.745 390.118 155.339C380.595 158.191 375.186 168.223 378.038 177.747C378.129 178.051 378.143 178.165 378.146 178.186C378.153 178.233 378.164 178.313 378.189 178.542C378.194 178.588 378.225 178.887 378.241 179.026C378.263 179.226 378.297 179.522 378.342 179.855L378.447 180.628L378.618 181.39C380.495 189.75 386.229 194.461 390.248 196.897L391.083 197.403L391.966 197.816C394.305 198.907 399.966 201.535 406.994 201.217C410.524 201.058 418.305 201.074 425.961 198.815C431.28 197.245 441.269 193.013 447.723 188.74C448.191 188.43 448.497 188.256 449.675 187.519C450.604 186.939 451.974 186.064 453.395 184.992C455.957 183.058 460.808 178.942 463.086 172.002C464.925 166.402 465.657 159.888 464.166 153.186C464.113 152.949 464.046 152.589 463.937 151.878C463.858 151.361 463.679 150.124 463.501 149.1C463.125 146.933 462.35 143.06 460.143 139.05C460.128 139.022 460.085 138.938 460.001 138.768C459.994 138.754 459.583 137.909 459.452 137.644C458.989 136.712 458.196 135.157 457.091 133.488C454.723 129.909 450.657 125.417 443.938 122.986C437.342 120.599 430.97 120.146 426.442 120.103C424.131 120.081 422.053 120.17 420.578 120.236C419.779 120.272 419.263 120.295 418.796 120.311C418.321 120.327 418.233 120.321 418.347 120.325C417.913 120.311 417.531 120.301 417.181 120.291C417.086 119.922 416.996 119.54 416.916 119.151C419.408 119.218 420.765 119.5 423.408 119.703C433.319 120.461 441.969 113.042 442.729 103.13C443.488 93.2187 436.068 84.5669 426.157 83.8071C426.071 83.7915 421.175 83.1759 416.058 83.1382H415.014ZM93.1919 24.0063C89.7723 24.0063 84.0113 23.9993 76.565 27.438C73.6529 28.7828 70.5188 30.6593 67.9585 32.1558C65.0922 33.831 61.6738 35.8092 57.1109 38.186C47.6926 43.0921 33.679 49.5804 26.2739 52.8081C24.4622 53.5978 23.1492 54.1482 22.1997 54.5288C21.8693 54.6613 21.5976 54.7633 21.3804 54.8462C12.7279 56.1556 6.09635 63.6252 6.09621 72.6431C6.09648 82.584 14.1552 90.6431 24.0962 90.6431C29.4065 90.643 33.8431 88.7798 40.6587 85.8091C42.9021 84.8312 45.703 83.5747 48.8032 82.1577C48.9116 84.3365 49.0549 87.1209 49.2437 90.7124C49.9985 105.07 51.4928 132.402 52.3853 161.839C52.6868 171.776 60.9862 179.587 70.9224 179.286C80.8585 178.984 88.6696 170.685 88.3687 160.749C87.462 130.843 85.9458 103.107 85.1948 88.8218C84.4306 74.2843 84.4663 73.7786 84.4663 73.5005V71.3394C84.4663 69.0659 84.0431 66.8909 83.2739 64.8882C84.3076 64.2944 85.2554 63.7442 86.1236 63.2368C89.4709 61.2804 90.7307 60.5487 91.6577 60.1206C91.7589 60.0739 91.8371 60.042 91.8921 60.02C91.9031 60.0195 91.9157 60.0196 91.9282 60.019C92.1764 60.0089 92.4724 60.0063 93.1919 60.0063C103.133 60.006 111.192 51.947 111.192 42.0063C111.192 32.0656 103.133 24.0067 93.1919 24.0063ZM179.714 39.8716C175.298 30.9733 164.51 27.3371 155.609 31.7417C155.567 31.7581 155.43 31.81 155.073 31.9341C154.376 32.1758 152.607 32.7638 150.36 33.5718C145.837 35.1981 138.27 38.0909 133.778 39.937L133.507 40.0474L133.242 40.1675C131.923 40.7601 130.899 41.2179 130.08 41.5776C129.627 41.7763 129.274 41.9281 128.999 42.0444C121.968 43.6214 116.491 49.3108 115.229 56.4556C112.229 59.6712 110.392 63.9869 110.392 68.7319C110.392 71.2443 110.794 76.7899 111.172 82.5649C111.589 88.9094 112.094 96.9922 112.471 105.938L112.48 106.14L112.493 106.341C113.232 117.779 114.122 129.427 115.199 136.888C115.702 141.236 116.313 148.15 116.98 155.706C117.249 158.75 118.261 161.551 119.822 163.945C119.972 164.743 120.177 165.542 120.441 166.334C123.585 175.765 133.779 180.862 143.209 177.718C148.212 176.051 153.31 173.781 160.997 171.747C162.64 171.312 164.693 171.117 167.569 171.087C169.269 171.07 170.142 171.1 172.143 171.098C173.651 171.097 175.902 171.076 178.176 170.794L178.453 170.76L178.727 170.717C181.929 170.22 185.151 169.207 186.562 168.792C188.498 168.224 189.325 168.03 189.902 167.956L189.901 167.954C190.926 167.829 191.794 167.674 192.24 167.594C192.803 167.493 193.114 167.438 193.535 167.377C203.374 165.96 210.202 156.834 208.785 146.995C207.367 137.155 198.241 130.327 188.402 131.745C187.286 131.905 186.395 132.069 185.898 132.158C185.693 132.194 185.575 132.215 185.518 132.224L185.449 132.232L185.268 132.255C181.602 132.731 178.357 133.681 176.415 134.251C175.28 134.585 174.639 134.778 173.985 134.954C173.773 135.01 173.609 135.05 173.488 135.079C173.241 135.088 172.808 135.098 172.114 135.098C171.22 135.099 168.895 135.072 167.197 135.089C163.274 135.13 157.725 135.373 151.786 136.945C151.663 136.977 151.54 137.011 151.417 137.044C151.251 135.386 151.09 133.862 150.934 132.53L150.903 132.258L150.863 131.987L150.704 130.858C150.509 129.408 150.315 127.724 150.124 125.843C153.855 124.566 158.215 122.977 162.832 121.228L163.053 121.144L163.272 121.054C168.076 119.089 171.591 117.255 175.604 115.38C180.048 113.304 188.062 109.757 196.109 105.511C204.901 100.872 208.267 89.9829 203.628 81.1909C198.989 72.399 188.1 69.0322 179.308 73.6714C172.285 77.3773 165.671 80.2854 160.364 82.7651C154.719 85.4026 153.447 86.168 149.821 87.6597C149.065 87.9455 148.327 88.2187 147.612 88.4858C147.431 85.4715 147.258 82.6917 147.095 80.2075C146.926 77.6332 146.781 75.4438 146.663 73.6001C146.998 73.4499 147.344 73.2969 147.697 73.1382C151.668 71.5139 158.532 68.8899 162.541 67.4487C164.598 66.709 165.52 66.4152 166.877 65.9438C168.244 65.4696 169.749 64.9117 171.593 63.9966C180.498 59.5772 184.133 48.7761 179.714 39.8716ZM297.219 15.5327C287.278 15.5327 279.219 23.5916 279.219 33.5327C279.219 35.3729 279.456 37.4346 280.747 48.1655C282.156 59.8783 284.938 82.5639 286.376 94.8198C287.392 103.49 288.416 109.54 289.262 113.966C289.666 116.082 290.054 117.938 290.288 119.104C290.414 119.734 290.499 120.18 290.56 120.527C290.589 120.693 290.61 120.815 290.623 120.9C290.635 120.983 290.64 121.02 290.64 121.02L290.771 122.13L291.038 123.215C291.105 123.49 291.176 123.74 291.223 123.911C291.258 124.199 291.336 124.948 291.401 126.41C291.6 130.86 291.604 139.37 291.604 148.91C291.605 158.85 299.663 166.91 309.604 166.91C319.545 166.909 327.604 158.85 327.604 148.91C327.604 139.834 327.609 130.273 327.365 124.802C327.29 123.118 327.185 121.642 327.044 120.314C331.614 120.197 335.851 120.061 338.871 119.93C339.006 120.888 339.147 121.847 339.303 122.826C339.608 124.739 339.778 127.457 339.928 131.348C340.061 134.778 340.185 139.384 340.572 143.435L340.625 143.989L340.711 144.539C340.989 146.293 341.175 147.768 341.369 149.293C341.54 150.643 341.778 152.552 342.143 154.378C342.204 154.683 342.68 157.524 344.18 160.526C345.882 163.932 348.338 166.628 351.172 168.687C359.215 174.529 370.472 172.746 376.315 164.704C380.737 158.617 380.789 150.69 377.068 144.662C376.902 143.353 376.682 141.623 376.371 139.587C376.139 136.949 376.054 133.92 375.901 129.956C375.757 126.239 375.544 121.484 374.854 117.155C374.162 112.814 373.862 109.574 372.88 101.505C371.913 93.5542 371.378 86.6564 369.94 78.1089C369.323 74.4446 367.964 67.9422 366.781 62.1001C365.5 55.7783 364.39 50.0578 363.947 46.7729C362.619 36.9213 353.555 30.0109 343.704 31.3384C333.852 32.6664 326.941 41.7297 328.269 51.5815C328.902 56.2755 330.282 63.2414 331.498 69.2456C332.81 75.7249 333.951 81.1898 334.437 84.0747C330.829 84.2038 326.133 84.3351 321.396 84.437C319.874 71.6889 317.668 53.6662 316.489 43.8657C315.789 38.05 315.451 35.134 315.29 33.6392C315.243 33.2089 315.217 32.9461 315.203 32.7993C314.818 23.1984 306.914 15.533 297.219 15.5327ZM242.078 25.0737C234.928 21.1112 227.682 22.1114 224.426 22.7759L223.83 22.9028C210.796 25.7752 207.37 37.4363 206.44 41.5161C205.457 45.8307 205.046 51.7431 204.674 55.4976C203.357 68.817 205.369 79.6141 205.525 81.313C206.955 96.9447 208.3 107.897 209.155 113.194C210.053 118.759 212.515 123.042 214.367 125.791C216.042 128.278 218.333 131.028 219.2 132.126C220.128 133.302 222.302 136.209 224.367 138.396C226.668 140.834 230.637 144.45 236.581 146.251C240.082 147.312 245.724 149.082 252.413 149.094L255.955 149.1L259.235 147.764C266.984 144.608 272.251 139.967 275.455 136.211L275.456 136.212C275.732 135.896 275.883 135.733 278.007 133.608C285.036 126.579 285.036 115.181 278.007 108.152C270.978 101.123 259.581 101.123 252.551 108.152C251.059 109.644 250.021 110.674 249 111.793C248.881 111.642 248.754 111.48 248.62 111.307C248.28 110.871 247.877 110.353 247.459 109.823C247.05 109.305 246.645 108.801 246.3 108.372C245.939 107.922 245.638 107.547 245.353 107.186C244.965 106.694 244.686 106.326 244.479 106.041C243.783 101.306 242.639 91.8386 241.376 78.0337C241.048 74.4588 240.397 71.1676 240.238 66.8257C245.081 67.7926 250.3 66.7762 254.563 63.5815C262.394 57.7132 264.082 46.6884 258.447 38.7573L258.172 38.3823L257.789 37.8813C253.741 32.7163 247.314 27.9759 242.078 25.0737Z" fill="black"/>
</svg>
