<svg width="550" height="357" viewBox="0 0 550 357" fill="none" xmlns="http://www.w3.org/2000/svg">
<path d="M200.668 16.8294C211.767 5.22245 227.355 -1.32075 244.115 0.223979C252.758 1.02073 273.4 3.95477 311.796 4.38707C316.009 4.43448 320.567 4.32413 324.846 4.1439C328.06 3.87326 330.846 3.63853 333.098 3.45152C336.424 3.17541 339.068 2.97415 341.07 2.84117C341.29 2.82646 345.769 2.46736 349.723 2.65171C350.157 2.67192 353.5 2.79464 357.633 3.62046C358.453 3.78416 366.103 5.12595 374.563 10.1283C377.7 11.9834 385.971 17.1906 393.035 27.5863C397.04 27.9561 400.732 28.3458 404.097 28.7377C409.052 29.3147 414.499 30.028 419.505 31.0013C422.154 31.5163 433.239 33.4788 443.871 40.0375C448.825 43.0937 464.716 53.7449 471.047 76.6478C473.337 84.9297 473.835 92.6186 473.242 99.5433C476.455 104.304 479.263 109.899 481.223 116.325C486.34 122.759 491.379 131.694 493.592 143.264C497.911 144.137 501.792 145.219 505.574 146.526C506.656 146.9 513.139 149.024 519.634 152.951C522.178 154.488 531.853 160.353 539.549 172.448C543.977 179.405 548.601 189.787 549.411 203.01C550.243 216.607 546.745 228.411 541.916 237.309C533.7 252.446 521.792 259.143 518.726 260.854C516.443 262.128 514.261 263.144 512.332 263.95C511.155 268.747 509.44 273.335 507.252 277.599C501.244 289.302 493.164 295.81 489.107 298.697C481.176 304.34 473.606 306.55 471.441 307.184C467.547 308.323 463.612 309.063 460.279 309.571C456.808 311.106 453.848 311.985 452.402 312.392C449.13 313.314 446.021 313.908 443.666 314.301C438.835 315.108 433.086 315.735 426.567 316.162C415.333 322.274 401.903 326.525 385.851 330.473C364.727 335.668 328.137 343.688 285.525 348.853C278.41 349.715 271.188 350.491 263.98 351.191C260.68 352.217 257.35 353.254 253.996 354.299C243.614 357.533 233.032 357.37 223.287 354.419C203.165 355.69 185.24 356.375 172.737 356.65C166.784 356.781 160.801 356.854 155.887 356.673C153.646 356.591 149.882 356.405 145.82 355.761C143.93 355.462 139.997 354.77 135.352 353.129C133.575 352.502 118.469 347.671 107.163 331.469C102.353 324.576 98.4578 315.887 96.7535 305.987C91.9972 300.868 86.926 293.615 83.6002 283.749C80.0697 273.276 79.6151 263.284 80.8394 254.507C71.6504 253.521 64.7562 252.624 59.4703 251.786C51.8339 250.576 43.7874 248.973 35.8052 245.379C34.3783 244.737 31.4703 243.376 28.107 241.233C26.1276 239.971 16.9981 234.25 9.68806 222.609C5.44902 215.858 0.729348 205.36 0.0757563 191.795C-0.602433 177.719 3.35814 165.699 8.53865 156.872C17.1259 142.242 29.0842 136.191 31.0963 135.129C31.4134 134.962 31.7273 134.802 32.0357 134.647C31.2038 120.637 35.0179 107.989 40.2359 98.6966C46.3282 87.8476 54.1314 81.4869 57.4234 78.9359C69.7318 69.398 87.655 62.1936 102.413 57.2064C118.026 51.93 135.792 47.2842 163.882 42.3441C166.187 38.6956 168.496 35.9018 170.283 33.9564C175.291 28.5033 180.175 25.3152 182.691 23.8011C190.817 18.9107 198.711 17.2781 198.923 17.2269C199.515 17.0842 200.098 16.9523 200.668 16.8294ZM137.4 222.411L136.317 222.426C129.765 222.575 124.742 225.395 123.003 226.341C121.405 227.21 120.901 227.483 120.823 227.537C117.451 228.581 114.32 230.31 112.25 231.553L110.532 232.61C101.403 238.252 99.5878 247.371 99.0513 252.679C98.5627 257.516 98.7135 264.313 98.7584 271.575C98.7757 274.374 99.0915 279.051 101.682 283.633C105.093 289.665 110.393 292.181 114.069 293.131C115.304 293.45 116.571 293.742 117.498 293.959C118.517 294.198 119.294 294.385 120.009 294.579C121.437 294.967 122.06 295.243 122.338 295.394C131.441 300.317 141.989 301.59 150.241 300.231C155.756 299.322 161.175 298.281 167.311 297.708C173.259 297.153 175.706 296.538 182.943 296.284C181.553 297.064 180.087 297.929 178.653 298.866C178.529 298.918 178.068 299.108 176.95 299.46C175.479 299.924 171.858 300.947 168.284 302.469C167.459 302.82 166.461 303.143 164.334 303.811C162.527 304.378 159.685 305.261 156.807 306.531C156.794 306.536 156.438 306.684 155.247 306.936C154.632 307.066 153.975 307.188 153.045 307.361C152.536 307.455 151.932 307.568 151.284 307.695C151.155 307.704 151.025 307.713 150.896 307.723C144.71 305.211 137.364 306.254 132.068 311.02C124.679 317.67 124.08 329.052 130.73 336.441C132.709 338.64 135.688 341.318 139.93 342.917C144.548 344.658 148.478 344.267 149.897 344.107L150.458 344.043L151.013 343.945C152.015 343.767 153.227 343.627 154.636 343.551L156.038 343.475L157.411 343.184C158.485 342.956 165.799 341.91 171.334 339.469C172.11 339.127 173.101 338.791 175.113 338.16C176.804 337.629 179.614 336.773 182.391 335.59C183.855 334.967 184.899 334.7 187.77 333.795C190.217 333.024 194.233 331.703 198.299 329.032C199.417 328.297 200.886 327.476 202.99 326.362C204.841 325.382 207.519 324.005 209.906 322.639C215.627 319.366 222.805 314.264 226.768 305.243C227.836 302.81 229.325 298.999 230.029 294.654C230.66 290.751 231.096 283.735 227.11 276.889L226.711 276.227L226.42 275.772C223.384 271.124 219.471 268.151 216.205 266.252C211.736 263.654 206.57 262.245 202.33 261.44C197.777 260.576 192.783 260.131 187.87 260.175C174.242 260.297 168.745 261.418 163.963 261.865C156.182 262.591 148.863 263.972 144.387 264.709C144.382 264.71 144.322 264.72 144.209 264.728C144.089 264.737 143.925 264.743 143.724 264.742C143.314 264.739 142.813 264.703 142.263 264.616C141.109 264.432 140.128 264.087 139.465 263.729C137.934 262.901 136.312 262.186 134.705 261.57C134.705 261.502 134.704 261.434 134.705 261.367C134.706 261.154 134.709 260.948 134.711 260.749C135.649 260.353 136.473 259.957 137.167 259.605C137.882 259.242 138.526 258.892 139.019 258.62C139.164 258.541 139.285 258.473 139.391 258.414C141.063 258.431 143.233 258.478 145.727 258.541C149.265 258.631 153.381 258.746 156.336 258.746C166.276 258.746 174.335 250.687 174.336 240.746C174.335 230.806 166.276 222.747 156.336 222.746C153.968 222.746 150.478 222.651 146.641 222.553C143.558 222.475 140.056 222.389 137.4 222.411ZM392.378 200.243C389.724 191.25 380.518 185.723 371.226 187.781C367.466 188.613 364.244 190.566 361.832 193.21C355.29 195.906 350.684 202.344 350.684 209.859C350.684 210.926 350.612 212.79 350.4 214.918C350.184 217.082 349.87 219.048 349.51 220.487C347.888 226.976 346.586 231.985 345.504 235.709C343.774 241.667 342.912 248.886 342.593 250.703C341.698 255.803 340.809 261.351 340.299 266.681C340.264 266.771 340.216 266.895 340.146 267.054C339.95 267.5 339.683 268.057 339.249 268.92C338.878 269.656 338.26 270.863 337.713 271.984C334.938 277.674 333.768 283.707 333.177 286.145L333.124 286.364L333.077 286.583C332.684 288.401 332.146 289.313 330.381 293.586C330.317 293.669 330.244 293.764 330.16 293.869C323.961 301.641 325.237 312.967 333.008 319.166C340.78 325.364 352.106 324.089 358.304 316.318C360.518 313.542 362.152 311.104 363.382 307.987C364.001 306.481 365.86 302.514 367.255 297.985C368.943 298.058 370.669 297.894 372.391 297.465C375.028 296.809 377.276 296.106 379.985 295.919C385.902 295.512 391.891 293.803 396.15 292.526L398.978 291.678L400.466 290.622C401.649 290.458 402.987 290.226 404.605 289.882C405.805 289.627 406.951 289.256 408.035 288.786C413.331 294.712 422.132 296.602 429.564 292.849C438.299 288.438 441.886 277.878 437.722 269.085L437.518 268.667L437.187 268.033C436.757 267.231 436.337 266.54 435.965 265.966C435.728 265.218 435.334 263.968 434.849 262.685L434.308 261.253L433.533 259.933L433.048 259.118C430.569 255.002 427.28 250.283 424.238 245.779C423.26 244.331 422.554 243.066 421.097 240.633C419.802 238.47 418.047 235.632 415.698 232.731C412.386 228.64 407.43 223.985 404.65 221.227C402.982 219.572 401.703 218.247 400.747 217.139C400.149 216.447 399.871 216.06 399.79 215.947C398.084 212.533 396.145 208.549 394.594 205.223C393.797 203.513 393.153 202.085 392.71 201.045C392.553 200.679 392.446 200.415 392.378 200.243ZM336.839 195.69C327.948 191.244 317.134 194.848 312.688 203.74C311.607 205.902 311.183 206.751 310.752 207.614C310.314 208.49 309.927 209.37 309.723 209.83C309.47 210.402 309.305 210.776 309.117 211.172C308.911 211.606 308.679 212.054 308.391 212.547C308.01 212.948 307.524 213.451 306.777 214.237C305.654 215.416 304.048 217.136 302.491 219.198C301.999 219.849 301.505 220.545 301.019 221.285C300.533 220.358 300.006 219.273 299.44 217.993C297.892 214.488 296.297 210.863 295.001 208.346C294.551 207.472 293.277 204.972 291.368 202.774C290.789 202.107 289.778 201.026 288.336 199.948C287.018 198.961 284.259 197.158 280.266 196.506C275.588 195.743 270.597 196.812 266.51 199.834C263.221 202.267 261.55 205.194 260.754 206.918L260.606 207.246C260.035 208.548 259.674 209.737 259.507 210.301C259.313 210.958 259.134 211.634 259.016 212.077C258.737 213.126 258.564 213.772 258.361 214.399C256.895 218.916 255.581 224.327 254.688 229.048C254.413 230.505 254.062 231.856 253.505 233.934C252.451 232.803 251.379 231.702 250.308 230.654C245.424 225.873 240.422 220.89 234.068 215.877C230.933 213.404 227.813 210.68 226.105 209.185C218.625 202.637 207.254 203.392 200.706 210.871C194.158 218.351 194.913 229.724 202.392 236.272C204.095 237.763 207.835 241.036 211.771 244.141C216.334 247.741 219.932 251.296 225.125 256.379C228.602 259.784 231.424 263.356 232.475 265.066C234.556 268.451 236.6 272.503 238.967 277.643C240.153 280.217 241.368 282.579 242.383 284.539C243.101 285.925 243.688 287.059 244.202 288.086C244.228 288.301 244.258 288.556 244.289 288.852C244.477 290.687 244.632 293.245 244.731 296.305C244.746 296.763 244.763 300.315 246.453 304.049C247.246 305.803 250.314 311.85 257.999 314.058C266.253 316.428 272.373 312.351 274.349 310.77C277.946 307.892 279.524 304.277 279.604 304.112C280.137 303.011 280.511 302.001 280.754 301.273C282.386 296.395 282.775 290.351 282.992 286.723C283.29 281.733 283.354 278.384 283.67 274.35C283.915 271.213 284.15 268.217 284.391 265.431C287.643 271.156 292.239 276.68 296.457 280.362C301.565 284.82 307.406 285.377 311.075 285.038C314.636 284.71 317.509 283.498 319.467 282.398C324.938 279.325 327.997 274.602 329.525 270.185C330.785 266.542 331.084 262.88 331.22 260.45C331.459 256.184 331.379 248.564 331.531 240.508C331.81 240.176 332.216 239.726 332.851 239.059C333.074 238.825 333.3 238.591 333.561 238.319C333.812 238.058 334.097 237.76 334.385 237.457C334.957 236.855 335.644 236.12 336.348 235.311L337.097 234.45L337.732 233.501C340.898 228.767 343.246 223.125 342.952 223.713C343.383 222.851 343.808 222.001 344.889 219.839C349.334 210.948 345.73 200.136 336.839 195.69ZM392.494 43.8587C382.553 43.8587 374.494 51.9176 374.494 61.8587C374.494 71.7996 382.553 79.8587 392.494 79.8587C392.635 79.8587 394.06 79.8605 396.57 79.8646C396.665 80.3895 396.783 80.9156 396.926 81.4398C397.408 83.1957 398.231 85.1275 398.6 86.0003C399.16 87.3242 399.882 88.9633 400.714 90.8158C402.387 94.5371 404.669 99.4901 407.345 105.268C411.105 113.384 412.76 117.264 414.45 121.049C415.303 122.962 416.039 125.47 417.968 132.86C419.435 138.478 420.211 139.915 421.777 146.974C421.907 149.401 422.026 151.574 422.148 153.339C422.237 154.617 422.384 156.701 422.715 158.684C422.716 158.691 422.718 158.699 422.718 158.706C422.759 159.069 422.83 159.673 422.952 160.406C423.21 161.96 423.613 163.615 424.241 165.464C427.436 174.878 437.656 179.919 447.07 176.725C447.811 176.473 448.525 176.176 449.211 175.841C447.899 176.574 446.847 177.183 446.23 177.516C444.326 178.545 443.639 178.444 436.478 180.661C434.79 181.184 432.598 181.6 430.228 181.869C427.907 182.133 425.86 182.207 424.668 182.207C415.649 182.207 408.18 188.839 406.871 197.493C403.892 203.061 403.936 210.035 407.591 215.726C409.298 218.383 412.39 222.087 414.541 224.676C417.17 227.841 419.717 230.874 421.692 233.42C423.535 235.797 424.885 237.737 426.134 239.567C427.273 241.235 428.795 243.521 430.44 245.619C433.097 249.009 438.182 256.258 442.052 262.37C443.528 264.701 444.47 266.819 445.063 268.662L445.685 270.594L446.683 272.276C446.712 272.345 446.787 272.534 446.912 272.915C446.974 273.108 447.042 273.323 447.131 273.614C447.208 273.863 447.333 274.267 447.448 274.631C447.676 275.353 448.063 276.552 448.61 277.851L448.677 278.01L448.748 278.168C449.385 279.605 450.028 280.882 451.038 282.901C455.484 291.792 466.296 295.396 475.187 290.951C484.078 286.505 487.682 275.693 483.237 266.801C482.367 265.061 482.035 264.393 481.829 263.952C481.815 263.909 481.797 263.856 481.777 263.792C481.738 263.668 481.358 262.43 481.136 261.751C480.956 261.199 480.74 260.564 480.48 259.867C485.45 258.06 489.791 255.45 492.772 253.593C493.007 253.501 493.273 253.398 493.581 253.281C494.346 252.988 495.529 252.543 496.685 252.068C499.009 251.112 502.484 249.544 505.89 246.887C509.991 243.688 513.149 240.777 516.212 237.919C519.242 235.094 522.606 231.969 525.562 229.013C526.313 228.263 529.157 225.583 531.38 222.427C533.905 218.843 536.627 213.387 536.507 206.311C536.414 200.82 535.407 196.672 534.515 193.608C534.317 192.928 534.112 192.259 533.971 191.796C533.815 191.282 533.712 190.937 533.628 190.637C533.512 190.219 533.476 190.038 533.468 189.994C533.318 188.803 532.921 184.479 532.233 181.372C531.44 177.79 529.575 171.813 524.139 167L523.601 166.538L523.08 166.114C517.647 161.782 508.275 157.349 497.482 159.437L496.95 159.544C493.455 160.287 490.226 161.579 488.238 162.39C485.734 163.411 484.531 163.945 483.139 164.425C477.97 166.206 476.744 166.892 474.162 167.566C472.962 167.879 471.578 168.098 468.573 168.65C466.275 169.072 462.422 169.792 458.839 171.144C456.137 172.164 453.18 173.672 450.75 174.994C457.633 170.748 460.983 162.235 458.441 154.235C458.422 154.068 458.396 153.841 458.361 153.586L458.253 152.813L458.206 152.609C458.169 152.249 458.12 151.685 458.062 150.85C457.94 149.091 457.814 146.728 457.647 143.597L457.571 142.175L457.273 140.784L456.92 139.178C455.156 131.315 453.347 125.86 452.8 123.767C451.104 117.269 449.641 111.568 447.325 106.378C445.794 102.947 443.912 98.5577 440.01 90.1361C438.458 86.7862 437.067 83.7693 435.864 81.1419C444.552 85.5316 455.203 82.2138 459.833 73.5882C464.533 64.8292 461.243 53.9175 452.484 49.2162C448.918 47.3023 445.585 45.7891 440.996 45.3382L440.763 45.3158L440.532 45.2982L439.115 45.1888C435.675 44.9089 431.167 44.4641 423.009 43.9945L422.546 43.9681L422.084 43.9652L410.086 43.9037C399.4 43.8588 392.842 43.8587 392.494 43.8587ZM379.703 247.184C383.66 251.101 386.092 253.375 387.718 255.383C387.968 255.691 388.216 256.025 388.482 256.406C386.541 257.086 384.868 257.915 383.479 258.719C380.544 259.541 378.698 259.92 377.526 260.002C377.693 258.998 377.868 257.972 378.051 256.926C378.256 255.763 378.435 254.573 378.586 253.563C378.748 252.488 378.886 251.553 379.044 250.594C379.253 249.321 379.465 248.199 379.703 247.184ZM498.2 197.21C498.437 198.379 498.703 199.416 498.949 200.299C499.155 201.038 499.364 201.732 499.527 202.267C499.705 202.854 499.827 203.251 499.949 203.668C499.952 203.679 499.955 203.691 499.959 203.702C497.576 206.078 494.785 208.675 491.657 211.593C488.774 214.282 486.621 216.244 483.941 218.348C483.819 218.41 483.528 218.554 482.992 218.775C482.378 219.027 481.762 219.259 480.743 219.648C479.838 219.993 478.606 220.466 477.326 221.025L476.118 221.552L475 222.249C472.237 223.972 470.605 224.942 469.361 225.537C468.067 225.702 466.438 225.954 464.418 226.415C463.469 226.632 462.555 226.92 461.68 227.272C460.618 225.819 459.632 224.506 458.771 223.409C458.058 222.499 457.4 221.515 455.867 219.269C454.802 217.71 453.518 215.851 451.897 213.671C455.277 212.666 459.557 211.235 463.348 209.186C468.267 206.527 469.626 205.551 471.548 204.826C471.596 204.81 471.861 204.725 472.435 204.59C473.117 204.43 473.957 204.262 475.071 204.058C476.861 203.729 480.36 203.154 483.253 202.399C487.435 201.307 493.164 199.048 494.867 198.461C495.979 198.078 497.13 197.636 498.2 197.21ZM162.569 70.2318C161.151 60.3924 152.025 53.5645 142.186 54.9818C132.347 56.3994 125.52 65.5252 126.937 75.3646C127.315 77.9866 127.765 79.7636 128.417 81.8773L128.452 81.9906L128.488 82.1029C129.205 84.3268 129.866 87.2401 130.289 90.013L130.37 90.5472L130.483 91.0755C131.059 93.7604 131.004 95.6914 130.52 107.256C130.238 113.995 130.251 122.291 130.486 129.977C129.851 129.401 129.171 128.787 128.428 128.129C113.854 115.21 108.37 110.382 104.419 106.004C104.234 105.169 104.142 104.515 103.636 102.274C103.404 101.244 103.041 99.7346 102.501 98.1605C102.046 96.8366 100.984 93.9749 98.7379 91.18C96.1774 87.9939 90.9234 83.6633 83.107 83.9037C76.9011 84.0947 72.622 87.1584 70.6187 88.8705L70.2486 89.1937C67.0622 92.0327 65.7349 95.2327 65.3365 96.225C64.7707 97.6344 64.4648 98.8717 64.2984 99.6419C63.9577 101.22 63.8142 102.689 63.7447 103.748C63.6043 105.889 63.6384 108.417 63.9459 110.823C64.5106 115.24 65.6421 119.256 66.3677 121.85C67.2538 125.017 67.4984 126.007 67.5699 126.614C68.0665 130.831 68.3635 142.803 72.0972 155.576C70.507 154.155 68.9997 152.78 67.6275 151.478C59.5461 143.806 57.7479 141.799 57.0982 141.149C50.0689 134.119 38.6717 134.12 31.6422 141.149C24.6129 148.178 24.612 159.575 31.6412 166.605C31.6239 166.588 31.4438 166.406 32.1373 167.123C32.5948 167.597 33.2317 168.248 34.1158 169.132C35.8762 170.893 38.6031 173.563 42.8424 177.587C48.9622 183.397 61.6646 194.147 66.275 198.325C70.0359 201.733 72.9608 204.857 75.9742 208.03C78.5994 210.793 82.3185 214.751 86.5484 217.682C88.4348 218.989 91.8207 220.818 96.4224 220.994C101.468 221.185 105.789 219.31 108.848 216.776C113.67 212.781 114.928 207.595 115.16 206.71C115.99 203.549 116.041 200.311 116.047 198.653C116.063 194.535 115.65 189.286 115.16 184.428C114.325 176.146 112.687 168.084 110.922 160.943C114.158 163.946 118.181 167.616 123.71 172.251C128.998 176.685 135.752 181.157 137.56 182.518C139.745 184.162 145.95 188.119 154.204 185.958C162.481 183.791 165.921 177.281 166.985 174.832C169.061 170.053 169.076 164.875 169.078 162.827C169.082 157.125 168.216 149.836 167.42 143.989C166.622 138.119 165.981 120.894 166.489 108.763C166.878 99.4704 167.429 92.0988 165.79 84.0433C165.145 79.9793 164.149 75.4429 162.82 71.2738C162.738 71.0074 162.692 70.8501 162.665 70.7523C162.652 70.7073 162.644 70.6777 162.64 70.6625C162.639 70.656 162.637 70.6506 162.636 70.6478L162.635 70.6449V70.6429C162.635 70.64 162.632 70.6269 162.628 70.6029C162.618 70.5524 162.599 70.4398 162.569 70.2318ZM236.771 15.5453C226.83 15.5453 218.771 23.6042 218.771 33.5453C218.771 36.3752 219.322 40.0895 219.94 43.5687C220.642 47.5212 221.709 52.6387 223.215 58.9007C224.991 66.2794 227.404 72.8625 229.439 78.1488C230.173 80.0542 230.807 81.6835 231.359 83.1068C230.549 83.5184 229.887 83.8494 229.243 84.1429C227.671 84.8584 226.47 85.25 225.074 85.4593C222.82 85.7972 218.866 86.4133 214.704 87.6439C213.378 88.0358 211.833 88.5471 210.175 89.222C209.933 88.532 209.768 88.0544 209.664 87.7171C209.288 86.5033 208.842 85.2541 208.473 84.2328C208.061 83.0919 207.695 82.098 207.273 80.8998C206.469 78.6164 205.622 76.0392 204.845 73.0462C202.878 65.4609 201.316 59.5528 200.176 55.0834C199.611 52.8662 199.196 51.1815 198.918 49.9642C198.743 49.2023 198.673 48.8336 198.655 48.7464C197.49 39.1262 188.879 32.1119 179.163 32.9925C169.262 33.8903 161.964 42.644 162.861 52.5443C163.039 54.5128 163.524 56.6756 163.823 57.9847C164.204 59.6534 164.709 61.6897 165.293 63.9769C166.45 68.5176 168.099 74.7622 169.999 82.0853C171.845 89.2016 175.244 98.2667 175.277 98.3724C175.793 100.037 177.116 103.696 178.342 107.241C178.944 108.979 179.614 110.947 180.336 113.123C178.998 117.41 179.252 122.201 181.419 126.535C182.602 128.901 184.237 130.892 186.166 132.457C187.617 137.922 189.177 144.403 190.697 151.817V151.818C191.225 154.401 191.401 155.299 191.501 155.977C191.555 156.346 191.601 156.727 191.644 158.06C191.742 161.11 191.745 166.478 191.745 172.537C191.745 182.478 199.804 190.537 209.745 190.537C219.685 190.537 227.744 182.478 227.745 172.537C227.745 166.783 227.747 160.684 227.626 156.907C227.465 151.9 226.99 149.607 225.966 144.603L225.965 144.597L225.439 142.067C224.061 135.551 222.655 129.692 221.308 124.537C222.048 123.935 222.791 123.309 223.533 122.657C223.791 122.54 224.238 122.365 224.91 122.166C226.519 121.691 228.374 121.366 230.412 121.061C234.53 120.443 238.358 119.249 241.643 117.956C242.181 119.791 242.709 121.491 243.211 123.081C244.592 127.461 245.549 130.314 246.361 133.462L246.373 133.506L246.383 133.549C248.226 140.55 250.143 151.163 250.869 157.222C250.941 159.765 250.945 163.899 250.945 168.676C250.945 178.617 259.004 186.676 268.945 186.676C278.885 186.676 286.945 178.617 286.945 168.676C286.945 163.827 286.949 158.508 286.823 155.198L286.797 154.542L286.725 153.89C285.879 146.282 283.573 133.407 281.198 124.385H281.197C280.076 120.055 278.677 115.845 277.543 112.25C276.346 108.459 275.165 104.518 274.04 99.6195C272.265 91.8937 269.662 84.4897 268.454 80.1996C267.083 75.3319 264.711 69.5664 263.035 65.2132C261.146 60.308 259.424 55.5001 258.216 50.4798C256.84 44.7608 255.935 40.3664 255.385 37.2728C255.11 35.7221 254.938 34.5773 254.84 33.807C254.793 33.4341 254.773 33.217 254.765 33.1302C254.545 23.3811 246.573 15.5457 236.771 15.5453ZM343.284 24.2533C339.554 15.9037 330.023 11.586 321.166 14.5384C311.735 17.6822 306.639 27.8763 309.782 37.307C309.858 37.5368 309.94 37.7641 310.023 37.9847C308.465 40.6488 307.572 43.749 307.572 47.058C307.572 48.9644 307.819 59.4597 309.421 83.0511C310.431 97.923 313.58 117.931 314.767 127.305C316.635 142.061 317.431 147.783 317.751 161.192C317.518 165.558 317.474 169.902 317.548 173.62C317.116 175.852 317.1 178.204 317.574 180.572C317.794 181.673 318.004 182.722 318.171 183.573C318.206 183.749 318.239 183.914 318.268 184.065C318.408 184.942 318.592 185.881 318.843 186.786L353.95 179.047C353.916 178.845 353.867 178.58 353.809 178.272C353.796 178.147 353.777 177.975 353.758 177.75C353.684 176.851 353.611 175.535 353.564 173.888C353.47 170.592 353.496 166.471 353.73 162.491L353.773 161.762L353.756 161.033C353.67 157.16 353.543 153.8 353.376 150.714C353.808 150.605 354.327 150.495 354.932 150.394L355.094 150.367L355.255 150.336C359.947 149.466 368.262 148.713 373.173 148.711C373.856 150.876 374.564 153.117 375.122 154.811C375.352 155.674 375.794 157.311 376.376 158.869C377.376 161.548 378.662 163.731 380.376 166.519C385.581 174.988 396.667 177.634 405.136 172.428C413.605 167.222 416.251 156.136 411.045 147.667C410.65 147.024 410.362 146.546 410.15 146.187C410.103 146.108 410.064 146.035 410.027 145.972C410.013 145.92 409.996 145.862 409.979 145.798C409.925 145.599 409.829 145.244 409.745 144.934L409.613 144.448L409.453 143.97L409.008 142.622C408.004 139.539 407.194 136.796 405.773 132.439C404.473 128.451 402.751 123.427 400.762 119.441C398.537 114.98 391.613 101.088 385.61 90.138C379.913 79.7472 375.085 72.1144 372.509 68.4007C370.437 65.4136 367.883 62.1296 365.826 59.3861C363.6 56.4175 361.247 53.1687 358.683 49.1576C353.693 41.3523 349.707 34.9752 346.941 30.4369C345.552 28.157 344.515 26.4145 343.829 25.221C343.572 24.7741 343.395 24.4572 343.284 24.2533ZM346.737 94.8304C348.719 98.052 351.228 102.31 354.043 107.444C355.138 109.442 356.272 111.556 357.404 113.698C354.541 114.015 351.789 114.396 349.409 114.815C348.553 108.653 347.561 101.679 346.737 94.8304Z" fill="#0000FF"/>
</svg>
