<svg width="525" height="302" viewBox="0 0 525 302" fill="none" xmlns="http://www.w3.org/2000/svg">
<path d="M437.476 0.088017C439.506 0.0285014 441.495 -0.130329 446.271 0.218876C449.018 0.639598 451.29 0.086171 461.177 3.672C462.864 4.58007 465.548 5.49426 468.777 7.37317C480.125 10.1022 488.399 15.9247 492.713 19.7091C507.019 33.7144 505.516 36.5656 507.825 40.2794C515.366 58.0132 516.501 72.9828 516.838 84.5909C517.252 86.9939 517.332 88.3413 517.426 89.548C517.714 94.8961 517.438 96.8291 517.26 99.2638C517.111 100.893 516.929 102.358 516.721 103.774C516.692 105.436 516.688 106.77 516.699 107.469C516.691 108.205 516.786 108.265 516.413 106.277C516.398 106.216 516.38 106.137 516.357 106.029C516.248 106.645 516.138 107.248 516.024 107.84C516.02 107.925 516.01 107.969 515.996 107.986C514.722 114.545 513.117 119.698 511.324 124.775C511.281 124.893 511.237 125.012 511.194 125.13C511.165 125.788 511.136 126.455 511.104 127.131C511.598 126.622 512.027 126.16 512.409 125.736C512.535 125.393 512.626 125.25 512.655 125.463C512.741 125.366 512.825 125.269 512.906 125.176C512.8 125.672 512.696 126.175 512.591 126.681C512.509 127.499 512.359 128.781 512.164 130.336C512.04 130.46 511.913 130.585 511.784 130.711C511.633 131.489 511.49 132.251 511.355 132.983C511.537 132.813 511.714 132.648 511.886 132.485C511.68 134.051 511.444 135.767 511.195 137.498C511.218 137.413 511.242 137.325 511.266 137.235C511.397 136.712 511.829 134.652 512.357 132.036C514.925 129.576 516.354 127.911 517.389 126.566C515.682 134.426 514.414 140.975 514.287 141.796C514.167 142.654 517.462 133.418 515.128 146.189C514.656 148.589 513.629 146.057 506.166 185.658C503.82 197.738 502.679 202.953 503.124 202.284C503.587 201.527 505.239 195.878 506.848 189.876C510.084 177.863 513.731 163.242 512.61 173.12C505.44 197.879 505.806 201.888 503.416 211.508C502.986 212.995 502.672 214.156 501.617 216.941C501.169 218.092 500.377 220.128 498.879 223.052C498.173 224.414 496.621 227.364 494.022 230.924C493.209 232.017 490.914 235.173 487.106 238.78C485.015 245.132 482.111 250.067 479.438 253.752C476.413 257.624 474.325 259.929 472.709 261.484C471.732 265.525 470.288 269.243 468.357 272.279C466.761 275.266 464.51 278.381 463.327 279.818C462.212 281.201 461.109 282.422 460.044 283.509C457.909 285.682 455.927 287.327 454.148 288.655C450.581 291.294 447.809 292.742 445.559 293.823C444.249 294.438 443.911 294.572 443.263 294.846C442.677 295.09 442.129 295.305 441.615 295.498C440.587 295.885 439.69 296.186 438.885 296.439C437.305 296.936 435.923 297.277 435.287 297.429C433.737 297.797 432.524 298.017 431.625 298.169C430.857 298.298 430.206 298.393 429.625 298.471C428.452 298.626 427.844 298.69 427.126 298.762C425.92 298.882 425.061 298.947 424.316 299.003C421.513 299.207 419.939 299.296 418.334 299.414C415.665 299.582 413.707 299.736 412.054 299.948C410.804 299.582 410.321 299.306 410.633 299.094C411.336 299.183 411.958 299.266 412.444 299.338C412.511 299.348 412.574 299.359 412.632 299.368C412.425 299.331 412.135 299.28 411.439 299.127C411.291 299.094 411.098 299.049 410.858 298.991C411.233 298.868 411.943 298.77 412.994 298.69C413.055 298.694 413.074 298.689 413.083 298.683C414.35 298.589 416.097 298.518 418.336 298.462C419.51 298.419 420.789 298.379 422.59 298.297C423.541 298.251 424.512 298.208 426.254 298.071C426.471 298.054 426.699 298.034 426.937 298.013C427.202 297.989 427.504 297.961 427.815 297.929C428.128 297.897 428.462 297.859 428.824 297.817C429.211 297.771 429.721 297.707 430.252 297.631C431.234 297.483 432.817 297.273 435.583 296.603C437.23 296.177 439.865 295.546 444.094 293.696C447.374 292.112 452.445 290.074 459.773 282.749C461.591 281.036 468.389 273.293 471.728 262.387C470.089 263.835 468.931 264.532 467.554 265.682C467.496 265.723 467.437 265.763 467.379 265.803C464.183 273.29 459.676 278.918 458.408 280.005C455.001 283.661 451.993 285.869 449.52 287.492C447.036 289.101 445.031 290.108 443.345 290.881C442.074 291.456 441.33 291.751 440.469 292.08C438.827 292.701 437.529 293.099 436.423 293.411C435.221 293.745 434.663 293.873 434.048 294.016C433.45 294.152 432.917 294.263 432.43 294.358C431.949 294.451 431.485 294.534 431.114 294.596C430.796 294.649 430.498 294.697 430.217 294.739C429.655 294.824 429.157 294.89 428.701 294.946C428.289 294.997 427.966 295.034 427.632 295.069C427.306 295.104 426.993 295.135 426.709 295.161C426.457 295.185 426.216 295.205 425.983 295.224C425.514 295.262 425.088 295.292 424.733 295.316C421.833 295.496 420.201 295.514 418.339 295.538C411.618 295.512 406.149 295.292 401.888 295.12C402.501 295.405 403.052 295.649 403.561 295.864C403.975 296.037 404.304 296.17 404.58 296.279C412.057 296.649 413.863 297.024 410.011 296.801C408.814 296.765 407.287 296.706 405.531 296.643C405.659 296.69 405.784 296.738 405.917 296.787C406.318 296.933 406.685 297.058 407.021 297.171C406.273 297.11 405.416 297.045 404.47 296.973C404.441 296.961 404.41 296.949 404.378 296.937C404.1 296.827 403.808 296.709 403.5 296.58C403.493 296.578 403.487 296.575 403.481 296.572C402.028 296.521 400.463 296.469 398.83 296.422C398.934 296.48 399.037 296.536 399.138 296.592C399.019 296.584 398.898 296.576 398.777 296.568C397.52 296.485 396.216 296.403 394.896 296.322C390.909 296.238 386.731 296.205 382.899 296.298C386.949 296.693 392.497 297.205 398.665 297.803C399.817 297.916 400.996 298.034 402.177 298.154C405.372 299.649 405.938 299.31 407.351 299.972C408.329 300.273 408.693 300.368 409.183 300.502C409.638 300.624 410.02 300.72 410.349 300.799C411.435 301.057 411.918 301.141 412.202 301.195C412.226 301.2 412.25 301.203 412.272 301.207C411.786 301.133 411.01 301.029 410.227 300.931C406.778 300.501 402.669 300.079 398.495 299.674C388.514 298.75 378.374 297.865 368.157 297.02C368.106 297.023 368.055 297.026 368.004 297.029C361.163 297.497 366.973 298.232 360.75 298.7C360.734 298.699 360.718 298.697 360.702 298.695C357.829 298.93 355.123 299.124 352.594 299.284C361.228 299.884 370.632 300.705 376.59 301.194C371.029 301.679 358.1 300.616 346.124 299.638C344.409 299.715 342.808 299.773 341.326 299.814C337.667 300.568 334.644 301.236 333.099 301.681C332.231 301.387 333.858 300.739 337.158 299.885C335.74 299.892 334.485 299.879 333.399 299.847C333.379 299.852 333.359 299.857 333.338 299.861C332.476 300.062 331.61 300.28 331.501 300.3C331.507 300.286 331.562 300.288 332.846 299.829C328.746 299.677 327.375 299.241 329.198 298.688C330.76 298.279 334.028 297.719 338.879 297.144C339.802 296.667 340.973 296.024 342.564 294.997C325.567 293.716 308.541 292.551 291.856 291.515C290.106 291.411 288.356 291.308 286.61 291.21C286.666 291.238 286.719 291.266 286.771 291.29C288.564 292.419 290.267 293.33 291.68 294.016C292.858 294.589 293.947 295.064 294.958 295.473C296.908 296.268 298.937 296.917 299.997 297.225C305.114 298.673 307.447 298.883 309.447 299.176C313.377 299.658 315.35 299.71 317.281 299.794C320.887 299.916 323.21 299.866 324.938 299.81C323.273 300.023 320.992 300.222 317.412 300.24C315.514 300.228 313.516 300.241 309.605 299.833C307.637 299.58 305.346 299.42 300.151 298.017C299.033 297.704 297.158 297.13 295.134 296.338C293.079 295.509 290.833 294.62 286.929 292.28C286.346 291.925 285.747 291.542 285.129 291.13C283.071 291.017 281.019 290.909 278.983 290.808C247.649 290.563 216.563 289.703 186.793 289.463C185.993 289.458 192.891 290.651 182.805 290.681C165.26 290.722 160.608 289.063 152.014 288.652C151.718 288.638 151.398 288.624 151.057 288.61C140.643 288.249 109.268 287.457 103.371 286.255C102.782 286.155 110.598 285.103 111.571 285.091C126.983 285.198 131.677 287.233 133.142 287.326C138.137 287.544 142.937 286.882 147.449 287.023C148.721 287.063 149.92 287.119 151.086 287.188C156.376 287.505 160.549 288.077 168.51 288.25C175.142 288.394 168.786 286.925 175.163 287.078C177.539 287.151 202.771 290.589 205.17 287.398C205.328 287.046 182.697 286.525 151.116 285.63C142.079 285.362 132.492 285.061 122.171 284.601C116.95 284.362 111.715 284.102 105.784 283.671C102.789 283.445 99.7944 283.211 95.8004 282.732C93.7504 282.47 91.6577 282.224 87.9596 281.478C86.0681 281.056 83.8938 280.678 79.2565 279.04C76.8749 278.114 73.7481 277.096 68.0231 273.395C66.4223 272.318 64.5073 270.951 62.3844 269.063C61.6487 269.14 60.8769 269.221 60.0182 269.314C60.0033 269.315 59.9881 269.316 59.9732 269.318C63.8397 272.983 67.064 275.018 69.5397 276.501C75.2727 279.76 77.8394 280.462 80.0953 281.279C84.2809 282.646 86.2235 282.988 87.8014 283.338C90.8782 283.965 92.3892 284.166 93.4391 284.339C93.4682 284.343 93.4979 284.348 93.527 284.352C96.5401 284.816 97.4109 285.621 95.9625 286.235C95.1806 286.524 93.9527 286.795 91.1217 286.684C89.6733 286.605 87.9304 286.509 84.2809 285.754C82.4351 285.326 80.0807 284.896 75.0143 282.899C72.355 281.738 69.1486 280.61 62.7955 276.068C60.8917 274.84 58.3472 272.628 55.6793 269.735C55.641 269.738 55.6017 269.742 55.5621 269.745C54.6073 269.788 54.1955 269.937 50.0426 269.899C48.4165 269.835 46.3632 269.848 41.8912 269.07C37.9423 267.505 30.2759 269.637 13.1725 253.087C9.37468 249.555 0.765088 235.738 0.212508 223.525C-0.944481 210.873 2.84578 200.633 6.18907 194.53C14.5869 181.11 14.9357 183.3 17.1715 180.711C20.9008 177.454 23.1546 176.127 24.899 175.052C25.908 174.454 26.1118 174.349 26.5611 174.1C26.9613 173.88 27.3259 173.687 27.6617 173.513C28.9655 172.837 30.0344 172.355 30.567 172.118C32.7572 171.164 33.3369 170.984 34.0582 170.709C39.7849 168.907 45.142 167.352 50.0787 166.009C52.802 159.529 56.1938 155.434 58.8141 152.528C75.8526 136.643 82.7795 139.021 87.484 137.368C92.086 136.639 94.6642 136.616 96.9557 136.567C101.387 136.537 104.081 136.781 106.625 136.996C111.574 137.456 115.339 137.997 118.906 138.501C119.577 138.598 120.238 138.697 120.891 138.793C121.953 138.825 122.724 138.852 122.985 138.874C123.768 138.936 124.39 138.994 124.866 139.047C125.45 138.691 125.972 138.388 126.394 138.149C127.162 137.712 127.844 137.347 128.463 137.027C129.083 136.708 129.64 136.434 130.151 136.19C130.579 135.985 130.955 135.811 131.318 135.647C134.229 134.35 135.269 134.004 136.457 133.554C147.499 129.666 153.572 128.528 161.409 126.839C157.064 127.872 154.802 128.887 152.251 129.904C149.436 131.042 147.512 131.639 139.14 134.139C138.463 134.352 137.694 134.604 136.923 134.87C136.132 135.146 135.318 135.433 134.02 135.947C132.675 136.517 131.211 136.986 127.063 139.262C126.871 139.37 126.665 139.49 126.445 139.617C129.65 140.1 132.643 140.554 135.48 140.975C137.031 140.329 137.834 140.051 138.657 139.752C148.087 136.579 151.921 135.99 156.404 134.926C160.564 134.01 163.789 133.368 166.063 132.878C157.979 134.844 152.061 135.938 138.976 140.651C138.477 140.848 138.021 141.017 137.41 141.261C137.451 141.267 137.493 141.273 137.535 141.279C137.705 141.304 137.875 141.328 138.044 141.353C138.419 141.226 138.749 141.119 139.1 140.999C151.775 137.333 157.337 136.463 163.272 135.186C168.78 134.115 172.32 133.713 172.663 134.879C173.01 134.215 173.934 133.612 175.287 133.069C171.313 131.412 170.189 131.216 168.396 130.678C167.53 130.441 166.732 130.244 166.018 130.082C171.789 129.724 178.869 129.144 183.738 128.654C184.392 128.376 185.068 128.092 185.779 127.797C185.723 127.799 185.667 127.8 185.61 127.802C185.477 127.806 185.34 127.81 185.2 127.815C184.253 127.867 169.476 128.977 162.849 129.459C162.508 129.402 162.188 129.352 161.887 129.308C161.239 129.212 160.676 129.141 160.177 129.084C159.682 129.028 159.414 129.001 159.082 128.97C158.454 128.912 157.946 128.876 157.521 128.851C157.174 128.83 156.888 128.817 156.64 128.807C156.125 128.787 155.877 128.784 155.667 128.78C155.457 128.778 155.353 128.778 155.286 128.777C155.046 128.778 155.395 128.771 155.829 128.75C156.264 128.73 156.84 128.699 157.468 128.662C159.284 128.554 161.375 128.403 163.554 128.238C164.459 127.599 180.283 124.207 178.282 124.461C173.66 124.823 169.968 125.271 166.952 125.755C174.154 124.416 181.198 123.336 187.376 122.494C186.704 114.232 187.458 105.802 190.476 99.5929C193.211 92.4977 196.254 88.0929 199.155 84.4288C201.667 81.3245 203.834 79.2289 205.833 77.463C209.406 74.3461 212.15 72.6276 213.908 71.547C217.858 69.1903 219.887 68.3655 221.618 67.6017C225.012 66.1755 226.787 65.6374 228.374 65.1251C232.456 63.8676 234.421 63.4373 236.158 62.9874C256.477 57.829 256.071 55.8566 276.587 49.5441C278.119 49.0574 279.837 48.5155 281.669 47.9445C279.936 48.4049 278.183 48.8671 276.503 49.298C272.098 50.4356 267.737 51.5162 263.466 52.5118C267.645 51.2228 271.906 49.8512 276.207 48.424C287.464 44.6788 299.186 40.5321 310.888 36.295C311.791 35.0102 312.72 33.8417 313.478 32.9552C313.963 32.3872 314.435 31.8634 314.892 31.3761C315.807 30.4015 316.663 29.5732 317.461 28.8478C319.057 27.4002 320.421 26.3531 321.607 25.504C322.793 24.6586 323.805 24.0161 324.696 23.4825C324.916 23.3507 325.141 23.2197 325.336 23.1075C325.464 23.0335 325.591 22.9613 325.714 22.8917C325.961 22.7526 326.199 22.6223 326.426 22.4991C328.245 21.5213 329.524 20.9597 330.583 20.5118C331.38 20.1784 331.972 19.9508 332.535 19.7423C333.72 19.3079 334.266 19.1358 334.875 18.9406C337.07 18.2575 337.946 18.0582 338.888 17.8156C339.785 17.5921 340.48 17.4308 341.154 17.2775C342.488 16.9753 343.534 16.7542 344.621 16.5284C346.693 16.0996 348.546 15.7377 350.322 15.3947C355.525 14.3935 359.956 13.5761 363.529 12.8751C363.99 12.7854 364.398 12.699 364.761 12.6154C362.69 11.9018 361.092 11.4866 359.749 11.1661C358.931 10.9739 358.178 10.8191 357.573 10.7042C357.142 10.6219 356.744 10.5513 356.374 10.4894C355.632 10.3657 354.998 10.2755 354.437 10.2033C353.877 10.1313 353.39 10.0775 352.957 10.0343C352.721 10.0111 352.585 9.99811 352.437 9.9845C352.292 9.97118 352.153 9.95951 352.02 9.94837C350.978 9.86069 350.188 9.82644 349.806 9.80579C348.883 9.76301 348.531 9.75016 348.252 9.73157C348.001 9.71419 347.896 9.69614 347.844 9.67591C347.693 9.59522 348.25 9.47862 348.801 9.34876C349.979 9.08634 351.55 8.77234 353.142 8.44642C353.326 8.40831 353.514 8.36936 353.706 8.3302C364.121 8.65983 359.363 9.89507 363.749 9.80188C364.697 10.0903 365.753 10.4375 366.947 10.8829C367.4 11.0664 367.793 11.2119 368.216 11.3741C368.601 11.178 369.016 10.9718 369.605 10.7423C369.208 10.574 368.825 10.4162 368.455 10.2687C367.868 10.0349 367.311 9.82762 366.783 9.63685C369.281 9.45307 373.041 9.10592 378.782 8.5304C380.872 8.14061 383.442 7.68004 386.429 7.16517C386.684 7.02161 386.968 6.86325 387.284 6.69251C377.175 7.68242 363.251 9.40607 368.567 8.02063C371.155 7.20848 381.455 6.01045 390.33 5.03919C390.28 5.06758 390.227 5.09536 390.173 5.1261C390.014 5.2179 389.854 5.31262 389.643 5.4386C389.608 5.45953 389.573 5.48217 389.537 5.50403C389.825 5.35457 390.147 5.18667 390.455 5.02552C397.602 4.24385 403.795 3.61005 404.237 3.45423C404.475 2.73257 377.276 5.63349 381.564 4.44349C384.699 3.54426 397.768 1.9959 412.986 1.46399C416.279 1.38043 419.87 1.28585 423.855 1.37317C425.424 1.17262 427.071 0.974651 428.832 0.781376C431.235 0.52865 433.699 0.263927 437.476 0.088017ZM412.325 301.215C412.566 301.252 412.736 301.283 412.654 301.273C412.602 301.265 412.526 301.253 412.272 301.207C412.29 301.21 412.308 301.212 412.325 301.215ZM399.138 296.592C401.103 296.721 402.909 296.854 404.47 296.973C404.66 297.048 404.788 297.097 404.947 297.157C405.295 297.29 405.62 297.41 405.924 297.519C406.534 297.737 407.064 297.914 407.536 298.065C407.996 298.212 408.459 298.351 408.759 298.438C409.037 298.518 409.291 298.589 409.524 298.652C410.075 298.802 410.516 298.91 410.858 298.991C410.76 299.023 410.686 299.058 410.633 299.094C410.48 299.074 410.322 299.054 410.162 299.034C407.683 298.73 404.922 298.434 402.177 298.154C401.357 297.771 400.364 297.265 399.138 296.592ZM407.021 297.171C408.864 297.322 410.047 297.432 410.284 297.464C412.002 297.676 411.752 297.877 412.063 298.146C412.216 298.281 412.52 298.436 412.915 298.585C412.992 298.619 413.085 298.654 413.091 298.675C413.09 298.678 413.087 298.68 413.083 298.683C413.074 298.689 413.055 298.694 412.994 298.69C412.928 298.685 412.815 298.673 412.622 298.643C412.409 298.609 412.031 298.544 411.282 298.377C410.932 298.299 410.254 298.139 409.399 297.902C409.018 297.797 408.324 297.599 407.432 297.309C407.3 297.266 407.163 297.219 407.021 297.171ZM393.674 291.209C393.327 291.231 393.049 291.245 392.806 291.257C391.768 291.304 391.559 291.304 391.17 291.315C391.013 291.318 390.863 291.319 390.718 291.321C391.498 291.917 392.232 292.444 392.921 292.925C393.887 293.524 394.777 294.064 395.597 294.554C389.314 293.998 378.913 293.45 378.573 293.776C378.284 294.065 380.109 294.407 382.869 294.736C383.801 294.748 384.752 294.767 385.722 294.794C385.416 294.845 385.11 294.897 384.805 294.949C388.909 295.372 394.189 295.747 397.942 295.922C397.999 295.955 398.056 295.987 398.113 296.019C399.748 296.072 401.238 296.128 402.584 296.187C402.45 296.128 402.314 296.065 402.174 296.002C403.57 295.934 403.344 295.674 400.319 295.124C400.272 295.101 400.225 295.078 400.177 295.054C400.07 295.05 399.964 295.045 399.859 295.041C399.832 295.036 399.804 295.031 399.777 295.026C399.551 294.988 399.266 294.947 398.928 294.903C398.355 294.826 397.625 294.745 396.785 294.663C397.494 294.598 398.286 294.556 399.17 294.531C399.059 294.473 398.946 294.414 398.833 294.353C397.835 293.811 396.849 293.252 395.452 292.359C394.91 292.007 394.336 291.627 393.73 291.205C393.712 291.206 393.693 291.208 393.674 291.209ZM350.364 295.778C350.024 295.892 349.662 296.006 349.262 296.126C350.554 296.022 351.903 295.921 353.306 295.822C352.47 295.757 351.633 295.692 350.796 295.627C350.659 295.676 350.516 295.727 350.364 295.778ZM396.226 294.928C397.289 294.947 398.5 294.989 399.859 295.041C400.019 295.069 400.172 295.097 400.319 295.124C400.996 295.463 401.611 295.749 402.174 296.002C401.446 296.037 400.276 296.021 398.832 295.963C398.546 295.951 398.249 295.936 397.942 295.922C397.409 295.619 396.838 295.289 396.226 294.928ZM380.609 295.717C381.918 295.723 383.187 295.734 384.414 295.745C383.269 295.689 382.196 295.64 381.227 295.599C381.021 295.638 380.814 295.677 380.609 295.717ZM396.226 294.928C395.777 294.92 395.353 294.915 394.957 294.915C395.26 294.854 395.586 294.802 395.934 294.756C396.032 294.814 396.13 294.871 396.226 294.928ZM466.763 266.235C463.727 268.345 461.974 269.342 460.644 270.02C458.444 273.795 456.29 276.425 455.429 277.16C448.879 283.987 444.393 285.767 441.352 287.257C433.749 290.367 432.705 289.975 430.899 290.432C429.49 290.674 428.652 290.772 427.921 290.856C425.279 291.133 424.316 291.138 423.206 291.189C421.151 291.259 419.735 291.257 418.346 291.252C410.305 290.962 403.948 290.757 398.875 290.642C397.893 290.796 397.29 290.844 396.661 290.94C395.853 291.034 395.264 291.086 394.818 291.123C395.307 291.453 395.755 291.744 396.156 291.998C397.301 292.72 398.307 293.294 399.209 293.779C399.705 294.046 400.17 294.286 400.607 294.505C404.657 294.475 410.354 294.71 418.34 294.887C419.606 294.894 420.912 294.895 422.597 294.853C423.485 294.828 424.386 294.8 425.82 294.704C426.512 294.656 427.42 294.589 428.704 294.439C429.484 294.344 430.209 294.253 431.513 294.029C433.184 293.678 433.953 293.76 439.191 292.04C439.815 291.822 440.496 291.57 441.248 291.268C442.074 290.926 442.535 290.758 444.32 289.9C447.396 288.318 451.652 286.203 457.407 280.384C458.118 279.647 458.845 278.846 459.581 277.969C459.968 277.506 460.254 277.156 460.747 276.521C461.343 275.749 461.94 274.926 462.532 274.047C464.033 271.821 465.505 269.199 466.763 266.235ZM396.785 294.663C396.487 294.69 396.203 294.721 395.934 294.756C395.823 294.69 395.711 294.622 395.597 294.554C396.012 294.591 396.41 294.627 396.785 294.663ZM353.835 293.307C353.298 293.463 353.317 293.649 353.28 293.906C355.242 293.895 356.168 293.753 355.411 293.407C354.907 293.368 354.401 293.33 353.894 293.29C353.874 293.296 353.854 293.301 353.835 293.307ZM336.388 292.457C334.455 292.536 332.48 292.617 330.348 292.687C334.722 292.987 340.021 293.348 344.639 293.6C344.847 293.454 345.062 293.304 345.282 293.148C345.488 292.998 345.696 292.84 345.909 292.681C344.11 292.546 342.298 292.411 340.473 292.278C339.151 292.336 337.79 292.398 336.388 292.457ZM301.701 290.86C302.255 290.895 302.809 290.929 303.363 290.964C303.232 290.929 303.099 290.892 302.963 290.855C302.542 290.857 302.121 290.859 301.701 290.86ZM266.008 288.035C244 287.191 202.171 286.789 221.012 288.27C222.816 288.425 262.017 289.325 272.159 289.431C272.438 289.382 272.738 289.329 273.064 289.266C273.848 289.301 274.635 289.337 275.424 289.375C279.472 289.117 279.15 288.843 276.129 288.578C276.212 288.558 276.296 288.538 276.381 288.518C276.169 288.498 275.955 288.481 275.741 288.461C274.8 288.424 273.863 288.388 272.932 288.354C272.421 288.324 271.881 288.298 271.313 288.269C271.224 288.276 271.158 288.282 271.111 288.287C269.633 288.237 268.19 288.191 266.825 288.156C266.106 288.138 265.314 288.12 264.724 288.111C264.411 288.107 264.15 288.104 264.043 288.104C264.069 288.103 264.126 288.103 264.23 288.102C264.321 288.1 264.607 288.097 265.12 288.078C265.252 288.073 265.404 288.067 265.585 288.059C265.708 288.053 265.847 288.044 266.008 288.035ZM271.639 288.305C272.069 288.32 272.5 288.338 272.932 288.354C274.191 288.426 275.27 288.503 276.129 288.578C275.561 288.714 275.053 288.83 274.568 288.954C274.006 289.079 273.51 289.18 273.064 289.266C272.614 289.245 272.165 289.223 271.717 289.203C270.061 289.131 268.442 289.067 266.911 289.014C266.167 288.988 265.417 288.964 264.788 288.947C264.483 288.939 264.211 288.934 264.066 288.93C264.012 288.928 263.978 288.927 264.144 288.924C264.185 288.923 264.239 288.922 264.308 288.92C264.395 288.918 264.535 288.916 264.716 288.91C265.344 288.861 264.666 289.015 268.828 288.615C269.393 288.551 270.074 288.467 271.007 288.322C271.01 288.304 271.04 288.295 271.111 288.287C271.286 288.293 271.463 288.299 271.639 288.305ZM191.408 284.786C189.078 284.641 158.958 284.199 158.21 284.985C167.498 285.483 206.604 285.84 191.408 284.786ZM118.944 277.036C117.938 277.039 116.938 277.047 115.948 277.062C115.443 277.267 114.982 277.458 114.546 277.669C111.449 278.81 109.915 279.208 109.019 279.385C109.362 279.346 109.742 279.306 110.141 279.273C111.368 279.159 112.851 279.057 114.562 278.965C114.616 278.944 114.672 278.925 114.727 278.903C115.845 278.351 117.148 277.923 118.944 277.036ZM111.806 277.169C110.061 277.785 109.332 277.891 108.662 278.1C107.743 278.334 107.423 278.4 107.298 278.443C107.175 278.484 107.275 278.488 107.447 278.487C107.671 278.481 107.988 278.467 108.372 278.451C108.939 278.333 109.912 278.092 111.864 277.473C112.159 277.355 112.467 277.247 112.806 277.132C112.468 277.143 112.134 277.156 111.806 277.169ZM117.767 273.644C115.913 273.68 114.277 273.72 112.954 273.761C109.234 275.217 108.412 275.241 107.636 275.468C106.926 275.633 106.801 275.653 106.814 275.665C106.842 275.672 107.055 275.653 107.355 275.629C108.617 275.521 110.928 275.371 113.338 275.256C113.652 275.241 113.971 275.227 114.293 275.212C115.209 274.859 116.301 274.424 117.767 273.644ZM119.728 273.609C118.557 274.255 117.584 274.695 116.726 275.106C117.041 275.093 117.358 275.081 117.677 275.068C118.446 274.668 119.315 274.187 120.305 273.601C120.111 273.604 119.919 273.606 119.728 273.609ZM122.647 273.57C121.829 274.118 121.084 274.577 120.4 274.967C121.145 274.94 121.902 274.914 122.67 274.888C123.268 274.495 123.906 274.054 124.588 273.559C123.93 273.563 123.282 273.564 122.647 273.57ZM202.195 146.582C198.383 146.386 193.805 147.401 189.856 150.624C186.244 153.572 184.694 157.123 184.03 159.261C183.472 161.058 183.273 162.718 183.225 164.033C176.342 164.271 167.04 165.011 159.287 167.382C153.005 169.303 148.818 173.291 146.168 176.823C143.689 180.128 142.035 183.725 140.915 186.385C138.003 193.298 137.374 196.244 134.33 202.602C133.34 204.669 130.259 210.28 128.455 215.308C126.24 221.481 125.04 228.332 125.269 237.018C125.49 245.412 129.395 251.469 133.099 255.273C134.838 257.058 136.556 258.386 137.764 259.263C138.373 259.704 138.935 260.09 139.316 260.351C139.77 260.662 139.918 260.764 140.041 260.852C145.074 264.456 150.349 266.592 155.008 268.145C159.256 269.56 164.732 271.005 168.881 272.221C184.208 276.71 197.053 269.809 203.19 265.276C213.399 257.736 218.138 246.93 220.557 234.607C220.973 232.487 221.333 230.244 221.648 227.877C227.031 236.528 231.016 241.65 234.493 245.127C235.062 245.696 236.701 247.384 239.143 249.013C241.568 250.63 244.166 251.808 246.929 252.741C256.348 255.922 266.562 250.866 269.743 241.447C272.831 232.304 268.155 222.41 259.261 218.93C258.08 217.58 255.741 214.58 251.814 208.215L251.681 208L251.543 207.789L250.871 206.756C247.482 201.511 243.658 195.064 237.703 187.282C235.938 184.976 234.542 182.808 232.034 179.207C229.763 175.947 226.939 172.069 223.363 168.198L223.381 168.216C223.354 168.172 222.847 167.531 221.932 166.04C221.625 165.54 221.317 165.013 221.012 164.48C219.93 160.756 218.57 157.782 217.035 155.476L216.657 154.926L216.344 154.493C215.98 153.999 215.464 153.334 214.838 152.646C214.452 152.22 213.612 151.326 212.41 150.393C211.98 150.059 208.145 146.889 202.195 146.582ZM199.157 271.673C197.813 272.07 198.903 272.495 199.31 272.52C199.966 272.543 200.661 272.552 201.38 272.551C201.193 272.482 200.998 272.411 200.796 272.335C200.542 272.238 200.275 272.134 199.993 272.021C199.851 271.964 199.709 271.907 199.555 271.843C199.425 271.789 199.293 271.731 199.157 271.673ZM49.4381 167.612C45.0133 168.846 40.1098 170.305 34.5719 172.098C33.696 172.446 33.4302 172.44 30.0504 173.983C29.5178 174.234 28.9016 174.534 28.1451 174.93C27.2719 175.406 26.9338 175.521 24.4596 177.063C22.1135 178.727 19.6659 179.736 13.4791 186.564C10.4169 190.255 5.95801 195.829 3.06895 206.441C-0.0444858 216.739 1.53914 233.274 8.28575 243.935C9.07353 245.278 9.90023 246.542 10.7467 247.724C11.17 248.315 11.5988 248.884 12.0299 249.434C12.2762 249.747 12.3859 249.883 12.526 250.057C12.6619 250.225 12.7979 250.391 12.9342 250.555C14.0254 251.866 15.1252 253.049 16.2076 254.118C18.3749 256.257 20.4656 257.937 22.3893 259.3C26.2494 262.016 29.4236 263.531 32.0143 264.619C37.078 266.7 40.6307 267.321 42.3024 267.641C43.5219 267.859 44.5266 267.996 45.3971 268.097C47.1315 268.295 48.35 268.358 49.3473 268.397C49.5954 268.406 49.8284 268.413 50.0484 268.418C50.1942 268.421 50.3317 268.424 50.4654 268.426C50.7323 268.43 50.98 268.432 51.2115 268.432C51.6743 268.432 52.0749 268.426 52.4332 268.418C53.3168 268.392 53.9486 268.362 54.4264 268.336C53.0682 266.774 51.7006 265.049 50.3883 263.202C49.872 262.96 49.3281 262.697 48.7565 262.404C48.4174 262.23 48.0691 262.044 47.7086 261.849C47.4287 261.827 47.1267 261.804 46.8014 261.776C45.8547 261.678 44.7237 261.539 43.2428 261.266C40.4973 260.593 36.2546 260.343 27.6139 255.056C25.4578 253.657 23.0113 251.82 20.441 249.237C19.8 248.592 19.1531 247.899 18.5074 247.157C18.1846 246.786 17.8618 246.402 17.5406 246.006C17.4582 245.904 17.3873 245.816 17.2936 245.698C17.1661 245.538 17.0386 245.376 16.9117 245.212C16.658 244.884 16.4054 244.546 16.1549 244.201C14.1498 241.447 12.2605 238.131 10.8297 234.424C4.44533 218.702 10.1504 202.335 14.3902 196.193C15.477 194.442 16.5283 193.014 17.5045 191.805C17.993 191.2 18.4645 190.651 18.9166 190.146C19.1641 189.87 19.3179 189.703 19.5133 189.493C20.2615 188.692 20.955 188.009 21.5973 187.408C22.882 186.21 23.9653 185.332 24.9049 184.614C26.78 183.194 28.104 182.383 29.1764 181.745C29.8087 181.375 29.924 181.314 30.2223 181.149C30.4846 181.004 30.7295 180.874 30.9586 180.753C31.8736 180.273 32.5599 179.949 33.1354 179.686C33.2788 179.62 33.4149 179.559 33.5445 179.501C33.6553 179.452 33.7292 179.42 33.817 179.382C33.9865 179.309 34.1455 179.241 34.2945 179.179C34.5925 179.054 34.8551 178.949 35.0924 178.856C35.6026 178.655 35.8506 178.567 36.1256 178.468C36.3911 178.373 36.6245 178.293 36.8375 178.222C38.4153 177.72 39.3532 177.486 40.1158 177.325C40.7254 176.838 41.3059 176.393 41.859 175.985C43.0326 175.128 43.857 174.582 44.735 174.024C45.9427 173.26 47.0017 172.656 47.9479 172.15C47.9509 172.14 47.9536 172.129 47.9566 172.119C48.4096 170.508 48.9082 169.009 49.4381 167.612ZM56.3199 265.542C56.89 266.203 57.459 266.822 58.024 267.386C58.2184 267.588 58.4136 267.783 58.6051 267.977C59.3023 267.905 59.8096 267.853 60.3463 267.798C60.5517 267.777 60.7539 267.756 60.9527 267.735C60.553 267.35 60.1481 266.946 59.7369 266.522C59.193 266.384 57.9675 266.077 56.3199 265.542ZM470.031 254.466C467.94 256.445 466.244 257.6 465.6 258.302C465.357 259.227 465.081 260.136 464.78 261.025C465.579 260.425 466.428 259.75 467.318 258.991C467.722 258.54 468.56 257.836 469.661 256.81C469.807 256.035 469.929 255.253 470.031 254.466ZM473.84 250.244C472.726 251.698 471.616 252.914 470.584 253.933C470.507 254.703 470.402 255.47 470.273 256.23C471.276 255.265 472.443 254.061 473.671 252.576C473.754 251.801 473.809 251.023 473.84 250.244ZM478.386 245.57C477.659 246.03 476.893 246.49 476.086 246.949C475.477 247.955 474.856 248.878 474.232 249.724C474.209 250.49 474.173 251.257 474.122 252.022C475.531 250.259 477.004 248.13 478.386 245.57ZM480.734 240.215C480.114 240.692 479.457 241.175 478.759 241.661C478.738 241.712 478.715 241.762 478.694 241.813C478.844 241.708 478.995 241.607 479.141 241.503C479.499 241.248 479.845 240.993 480.182 240.741C480.371 240.565 480.554 240.389 480.734 240.215ZM187.441 199.942C187.137 212.766 186.442 221.501 185.231 227.672C183.746 235.239 182.02 236.158 181.802 236.318C180.992 236.917 180.113 237.365 179.429 237.564C179.172 237.638 179.024 237.655 178.956 237.658C173.155 235.96 169.873 235.152 166.387 233.99C163.721 233.102 162.279 232.408 161.383 231.839C161.582 229.854 161.962 228.519 162.34 227.465C162.702 226.458 163.182 225.382 163.934 223.869C164.485 222.76 165.858 220.116 166.799 218.151C168.643 214.302 170.09 210.694 171.262 207.652C172.419 204.653 173.12 202.722 173.853 200.933C176.943 200.444 180.845 200.119 185.032 199.991C185.855 199.966 186.661 199.951 187.441 199.942ZM499.533 213.97C499.3 214.605 499.041 215.284 498.741 216.031C498.591 216.405 498.431 216.796 498.256 217.209C498.056 217.684 497.786 218.304 497.505 218.919C497.22 219.544 496.9 220.219 496.528 220.962C496.14 221.727 495.801 222.406 494.98 223.851C494.222 225.17 493.296 226.685 492 228.513C491.675 228.97 491.326 229.447 490.947 229.945C490.757 230.195 490.559 230.45 490.354 230.711C490.151 230.969 489.736 231.487 489.393 231.897C489.197 232.131 488.994 232.369 488.784 232.612C488.773 232.666 488.763 232.721 488.753 232.775C489.023 232.462 489.284 232.158 489.532 231.86C489.968 231.334 490.408 230.776 490.602 230.526C491.097 229.889 491.543 229.286 491.952 228.714C492.768 227.569 493.437 226.544 494.014 225.61C495.162 223.752 495.992 222.152 496.399 221.344C498.388 217.31 498.886 215.715 499.533 213.97ZM338.921 71.7589C336.61 70.3595 333.176 69.0063 328.931 69.1515C324.615 69.2992 321.127 70.9399 318.704 72.757C314.611 75.8255 313.068 79.7047 312.719 80.5724C312.137 82.0208 311.855 83.256 311.723 83.8976C311.447 85.2392 311.345 86.4252 311.298 87.0919C311.114 89.7281 311.229 93.2046 311.438 96.5158C311.658 99.996 312.046 104.203 312.626 108.73C310.771 107.784 308.825 106.847 306.842 105.978C295.197 100.869 284.015 101.912 277.342 103.678L276.711 103.851C268.182 106.267 264.779 113.273 263.897 115.211C262.623 118.011 261.978 120.849 261.6 122.895C260.811 127.17 260.435 132.398 260.224 137.719C259.796 148.56 259.955 163.245 260.133 179.143C260.329 196.601 263.521 205.879 269.15 212.92C276.048 221.547 285.383 226.673 295.93 229.065C309.576 232.158 322.034 226.638 328.096 223.274C336.772 218.458 340.703 210.296 342.63 205.242C344.581 200.126 345.893 194.095 346.665 191.009C346.853 190.257 347.069 189.432 347.303 188.518C351.407 195.617 355.349 202.392 358.966 207.16C358.98 207.182 358.997 207.207 359.015 207.236C359.187 207.507 359.305 207.702 359.653 208.261C360.281 209.27 361.136 210.616 362.348 212.319C368.113 220.418 379.353 222.31 387.452 216.545C395.55 210.78 397.441 199.541 391.676 191.443C391.058 190.573 390.636 189.911 390.217 189.238C389.909 188.743 389.071 187.353 388.167 186.094L387.971 185.821L387.765 185.557L387.221 184.834C384.522 181.146 381.236 175.178 375.111 164.708C371.867 157.901 368.24 150.502 364.411 143.547C357.327 130.68 353.148 128.061 350.585 117.226C350.475 114.762 350.354 112.355 350.223 110.038C349.898 104.272 349.51 98.9333 349.082 94.5812C348.738 91.0904 348.25 86.7846 347.41 83.5607L347.237 82.9308L347.037 82.2677C346.75 81.3678 346.189 79.8208 345.242 78.1993C344.784 77.4156 342.888 74.1625 338.921 71.7589ZM296.139 140.735C298.407 141.888 300.682 143.159 302.809 144.401C304.448 145.357 305.885 146.227 307.19 147.012C308.143 147.585 309.847 148.621 311.196 149.292C312.488 149.935 313.821 150.406 315.168 150.718C315.006 161.44 314.513 167.745 313.96 171.877C313.37 176.28 312.737 178.292 311.741 182.273C311.113 184.782 310.792 186.226 310.259 188.264C309.789 190.065 309.382 191.397 308.994 192.415C308.96 192.504 308.926 192.587 308.895 192.664C307.932 193.098 306.948 193.458 306.02 193.693C304.579 194.058 303.928 193.961 303.89 193.956H303.891C300.07 193.09 298.385 191.774 297.388 190.584C297.35 190.478 297.296 190.32 297.234 190.1C296.847 188.736 296.207 185.456 296.131 178.739C295.959 163.354 295.827 150.325 296.139 140.735ZM446.803 29.2374C440.553 29.0002 435.922 31.932 433.324 34.5372C431.041 36.826 429.937 39.167 429.491 40.2023C428.967 41.4183 428.676 42.4575 428.522 43.0704C428.293 43.9827 428.16 44.7954 428.083 45.3644L428.022 45.8468C427.564 49.7955 427.442 53.4057 427.6 56.7697C422.344 54.7284 417.2 54.4841 413.555 54.5841C409.409 54.698 404.827 55.3923 401.254 55.9738L398.073 56.4923C390.86 57.6218 385.002 61.6122 381.313 67.3507C378.184 72.2187 377.236 77.3794 376.838 80.6652C376.416 84.1396 376.393 87.7088 376.39 90.3605C376.387 93.3771 376.412 95.5412 376.303 97.6915C375.647 110.69 376.721 127.744 380.425 139.086C386.802 158.61 394.989 170.252 404.076 178.589C413.543 187.274 425.079 186.236 431.116 184.983C437.254 183.708 443.465 180.947 445.664 180.067C454.146 176.669 458.815 169.933 461.276 165.33C463.798 160.612 465.323 155.602 466.248 152.466C467.225 149.151 467.686 145.046 467.976 142.016C468.13 140.412 468.268 138.683 468.397 136.879C470.439 139.557 471.92 141.735 473.372 143.945L473.553 144.222L473.745 144.491C473.992 144.839 474.216 145.141 474.362 145.335C474.392 145.375 474.428 145.423 474.462 145.468C474.463 145.472 474.465 145.476 474.466 145.48C477.648 154.898 487.862 159.953 497.28 156.773C506.698 153.591 511.755 143.377 508.574 133.959C507.617 131.127 506.502 128.762 505.184 126.641C504.561 125.637 503.987 124.842 503.592 124.31C503.454 124.123 503.273 123.884 503.197 123.782C499.439 118.085 495.41 112.519 487.193 103.175C484.567 99.4096 481.494 95.809 479.881 93.797C477.616 90.9714 476.949 89.8021 476.733 89.2726C475.4 86.0083 473.828 82.5875 472.345 79.2618C472.02 78.5321 471.686 77.7779 471.342 76.9943C471.227 72.3642 470.892 67.7636 470.199 63.6691C468.842 55.6576 466.117 48.4754 463.679 42.462C463.674 42.4488 463.666 42.4264 463.654 42.3937C463.608 42.2716 463.589 42.2172 463.5 41.9738C463.437 41.8042 463.311 41.4634 463.165 41.0949C463.041 40.7853 462.743 40.0464 462.302 39.1906C462.176 38.945 460.793 36.0527 457.836 33.5382C456.185 32.1352 452.412 29.4505 446.803 29.2374ZM81.2027 165.596C81.3776 165.59 81.5472 165.583 81.7125 165.573C81.6982 165.571 81.6838 165.567 81.6695 165.565C81.5135 165.575 81.3577 165.586 81.2027 165.596ZM73.8033 164.781C73.8161 164.784 73.922 164.787 74.0436 164.787C74.1472 164.787 74.2671 164.784 74.399 164.782C74.3193 164.781 74.2514 164.777 74.1852 164.776C73.8521 164.774 73.7954 164.779 73.8033 164.781ZM414.089 90.588C419.015 95.01 425.411 100.721 429.014 103.606C430.57 104.851 432.27 105.795 434.043 106.448C433.612 113.517 433.249 121.646 432.878 128.173C432.646 132.244 432.407 135.79 432.139 138.588C431.826 141.863 431.59 142.719 431.718 142.283C431.295 143.718 430.914 144.938 430.517 146.032C430.283 146.679 430.068 147.203 429.88 147.622C429.011 147.978 428.221 148.298 427.269 148.653C426.661 148.881 426.118 149.07 425.635 149.227C422.205 145.311 418.309 139.123 414.647 127.909C412.899 122.555 411.702 110.507 412.257 99.5079C412.416 96.3617 412.391 93.0857 412.39 90.7374C413.046 90.6649 413.606 90.6138 414.089 90.588ZM105.645 145.231C102.582 144.999 102.129 144.948 106.018 145.764C106.845 145.962 107.769 146.25 108.34 146.422C108.46 146.429 108.581 146.437 108.702 146.444C108.209 146.194 106.856 145.633 105.855 145.298C105.784 145.274 105.713 145.253 105.645 145.231ZM164.224 143.601C162.679 143.792 161.479 143.983 160.252 144.132C160.467 144.151 160.673 144.172 160.869 144.188C161.067 144.202 161.251 144.213 161.42 144.222C162.013 144.172 162.551 143.93 164.224 143.601ZM155.572 138.117C158.912 137.181 160.478 136.654 158.343 136.917C155.837 137.349 150.358 138.118 140.107 141.65C140.917 141.766 141.711 141.879 142.488 141.987C148.724 139.9 152.441 139.034 155.572 138.117ZM106.312 139.117C106.328 139.094 106.256 139.049 106.132 138.993C105.876 138.969 105.636 138.945 105.418 138.921C105.665 138.972 105.961 139.035 106.312 139.117ZM512.357 132.036C512.204 132.183 512.048 132.333 511.886 132.485C511.986 131.729 512.079 131.007 512.164 130.336C512.395 130.106 512.618 129.88 512.832 129.659C512.669 130.482 512.509 131.282 512.357 132.036ZM162.849 129.459C163.244 129.525 163.668 129.599 164.127 129.687C164.659 129.788 165.295 129.918 166.018 130.082C164.572 130.172 163.208 130.251 161.981 130.308C158.574 130.47 156.47 130.462 156.057 130.346C155.69 130.222 155.931 130.09 159.683 129.68C159.791 129.68 161.004 129.593 162.849 129.459ZM520.988 111.701C521.07 111.425 520.648 112.776 520.311 114.062C519.951 115.409 519.564 116.969 519.177 118.601C518.811 120.177 518.452 121.759 518.105 123.315C517.299 124.455 516.261 125.823 514.913 127.392C514.316 128.072 513.632 128.832 512.832 129.659C513.205 127.775 513.594 125.772 513.938 123.932C514.713 122.947 515.234 122.167 515.869 121.318C516.18 120.874 516.507 120.386 516.715 120.066C516.92 119.752 517.11 119.454 517.287 119.169C517.641 118.6 517.945 118.085 518.213 117.614C520.09 114.228 520.284 113.441 520.614 112.698C520.879 112.035 520.948 111.814 520.988 111.701ZM187.715 125.769C185.018 126.206 181.031 126.711 175.256 127.296C176.568 127.186 177.885 127.071 179.208 126.958C181.564 126.644 184.546 126.253 187.727 125.857C187.723 125.827 187.719 125.798 187.715 125.769ZM166.952 125.755C165.092 126.101 163.292 126.455 161.409 126.839C162.979 126.468 164.764 126.106 166.952 125.755ZM523.658 112.795C523.646 113.119 523.708 113.379 523.9 113.282C524.004 113.243 524.139 113.127 524.279 113.017C524.418 112.907 524.574 112.774 524.657 112.87C524.696 112.923 524.718 113.036 524.67 113.327C524.648 113.466 524.603 113.663 524.519 113.951C524.434 114.242 524.336 114.563 524.114 115.146C523.9 115.702 523.63 116.387 523.043 117.61C522.755 118.203 522.434 118.855 521.827 119.941C521.537 120.457 521.206 121.023 520.82 121.651C520.623 121.97 520.433 122.273 520.182 122.658C519.89 123.107 519.569 123.585 519.212 124.095C518.628 124.87 518.1 125.642 517.389 126.566C517.62 125.502 517.86 124.415 518.105 123.315C519.082 121.932 519.719 120.884 520.135 120.204C520.569 119.482 520.924 118.851 521.226 118.291C521.508 117.768 521.686 117.418 521.875 117.041C523.263 114.184 523.31 113.767 523.532 113.195C523.592 113.017 523.631 112.888 523.658 112.795ZM514.925 116.889C515.032 116.827 515.052 117.085 515.001 117.615C514.899 118.641 514.47 121.092 513.938 123.932C513.639 124.311 513.301 124.72 512.906 125.176C513.561 122.105 514.222 119.282 514.732 117.552C514.8 117.311 514.865 117.09 514.925 116.889ZM512.361 75.0763C512.574 77.5829 512.683 79.9294 512.729 82.1183C512.909 82.838 513.054 83.493 513.175 84.0997C513.482 85.652 513.604 86.5636 513.722 87.5011C513.943 89.3359 514.003 90.5033 514.049 91.5158C514.124 94.6808 514.074 96.9357 513.961 98.7677C513.565 97.8815 513.072 96.8423 512.449 95.6095C512.44 95.8795 512.432 96.1443 512.425 96.4034C512.693 96.9649 512.931 97.4743 513.17 97.9542C513.446 98.5906 513.686 99.1639 513.896 99.6808C513.742 101.634 513.517 103.141 513.308 104.942C512.755 108.532 512.152 111.713 511.581 114.426C511.529 116.18 511.468 118.032 511.398 119.981C512.365 117.119 513.718 112.425 514.953 105.195C514.995 104.911 515.033 104.628 515.075 104.348C514.767 103.694 514.521 104.393 514.506 103.783C514.411 103.73 514.461 102.886 514.561 101.395C514.872 102.245 515.07 102.882 515.213 103.391C515.261 103.057 515.308 102.721 515.353 102.377C515.185 101.834 514.961 101.181 514.629 100.349C514.863 96.8893 515.228 91.0523 515.059 83.9181C514.886 83.0468 514.66 82.0345 514.347 80.8283C514.046 79.7082 513.662 78.4421 513.112 76.9581C512.882 76.3442 512.673 75.8064 512.361 75.0763ZM523.713 112.574C523.709 112.604 523.696 112.665 523.658 112.795C523.659 112.757 523.661 112.717 523.665 112.678C523.665 112.64 523.723 112.482 523.713 112.574ZM512.426 103.227C512.428 109.872 512.94 108.582 512.813 106.962C512.916 106.668 512.905 105.917 512.937 105.568C512.959 105.176 513.023 105.088 512.863 104.535C512.712 104.148 512.579 103.72 512.426 103.227ZM513.961 98.7677C514.224 99.3588 514.444 99.882 514.629 100.349C514.604 100.726 514.583 101.075 514.561 101.395C514.381 100.901 514.163 100.336 513.896 99.6808C513.919 99.3874 513.941 99.0837 513.961 98.7677ZM267.755 82.9269C267.906 82.9485 268.062 82.9725 268.223 82.9952C268.444 83.0229 269.223 83.0979 270.473 83.2072C270.119 82.9246 269.784 82.6659 269.468 82.4269C268.448 82.3667 267.548 82.3189 266.798 82.2853C267.095 82.4796 267.416 82.6917 267.755 82.9269ZM261.2 79.1837C261.598 79.3684 262.008 79.5587 262.468 79.7853C263.633 79.8156 264.667 79.8229 265.476 79.8077C265.069 79.5776 264.672 79.3557 264.26 79.1202C263.041 78.9831 261.489 78.8143 259.897 78.6329C260.291 78.7949 260.724 78.9776 261.2 79.1837ZM254.42 77.9298C254.497 77.9528 254.762 77.9991 255.703 78.2658C255.923 78.3292 256.269 78.4315 256.633 78.549C257.003 78.6682 257.43 78.8098 258.062 79.0431C258.521 79.2265 259.026 79.4075 259.678 79.6779C259.912 79.6902 260.142 79.703 260.366 79.712C260.95 79.7384 261.519 79.7583 262.062 79.7745C261.201 79.3818 260.52 79.1262 259.846 78.7941C259.635 78.7094 259.433 78.6313 259.243 78.5568C258.462 78.4662 257.68 78.3747 256.933 78.2794C256.019 78.163 255.23 78.0503 254.731 77.9728C254.497 77.937 254.349 77.9117 254.42 77.9298ZM256.741 77.4933C256.998 77.5345 257.266 77.5788 257.541 77.6212C257.247 77.574 256.962 77.5255 256.691 77.4786C256.707 77.4833 256.724 77.4885 256.741 77.4933ZM254.568 77.1027C254.607 77.1163 254.815 77.1607 255.097 77.214C255.123 77.219 255.151 77.2225 255.178 77.2277C254.648 77.1007 254.53 77.0908 254.568 77.1027ZM473.695 10.8038C474.871 11.7757 476.08 12.8962 477.31 14.1964C480.887 15.8043 483.941 17.6393 486.374 19.4034C490.177 22.1867 491.365 23.431 493.005 25.0128C494.523 26.5252 495.762 27.9355 496.816 29.2345C497.87 30.5343 498.739 31.7252 499.486 32.8195C499.859 33.3664 500.201 33.8894 500.518 34.3908C500.745 34.7497 500.952 35.0861 501.152 35.4181C502.736 38.0637 503.687 40.0818 504.433 41.7736C508.658 52.7632 510.803 62.2445 511.847 70.2911C513.253 72.8245 514.097 74.9264 514.566 76.1632C514.61 76.2812 514.653 76.3984 514.695 76.5138C514.23 70.3267 513.301 63.5564 511.578 56.7286C510.239 51.5224 508.452 46.229 506.134 41.0245C505.647 39.9226 505.064 38.6824 504.297 37.2355C503.914 36.512 503.484 35.7356 502.987 34.8966C502.738 34.4769 502.473 34.0419 502.188 33.589C501.881 33.0991 501.373 32.3162 500.894 31.6232C498.899 28.7691 496.197 25.2026 491.361 21.0001C487.853 17.8817 481.745 13.6598 473.695 10.8038ZM311.975 36.2579C311.787 36.5172 311.597 36.7861 311.405 37.0636C312.675 36.5335 313.984 35.9846 315.289 35.4376C315.376 35.3314 315.462 35.2244 315.548 35.1212C315.601 35.0593 315.663 34.9854 315.706 34.9357C315.734 34.902 315.763 34.8684 315.792 34.8351C315.849 34.7685 315.906 34.7022 315.963 34.6368C316.029 34.5602 316.096 34.4843 316.162 34.4093C314.639 35.0795 313.246 35.696 311.975 36.2579ZM370.204 11.0011C369.588 11.1627 369.012 11.3208 368.481 11.4767C369.208 11.7602 370.069 12.1236 371.478 12.8175C370.42 12.949 368.899 13.1744 366.977 13.4786C366.663 13.3554 366.429 13.2541 366.281 13.1593C365.86 13.0013 365.456 12.8568 365.069 12.7208C364.088 13.2452 364.264 13.5964 366.021 13.629C362.125 14.2562 356.81 15.1681 350.493 16.2872C348.766 16.6081 346.96 16.9512 344.935 17.3615C343.885 17.5751 342.854 17.7888 341.567 18.0753C340.192 18.3967 339.174 18.5754 335.961 19.5079C334.917 19.8387 333.976 20.0611 331.017 21.2618C330.014 21.6828 328.768 22.2259 327.026 23.1525C326.807 23.2694 326.579 23.3927 326.342 23.5245C326.224 23.5904 326.103 23.6586 325.98 23.7286C325.856 23.7992 325.742 23.8642 325.506 24.0021C324.665 24.4949 323.712 25.0861 322.595 25.8595C321.479 26.6361 320.197 27.5909 318.693 28.9015C317.941 29.5583 317.133 30.3062 316.267 31.1847C315.834 31.6242 315.386 32.0962 314.925 32.6075C314.695 32.8633 314.461 33.1295 314.224 33.4054C314.153 33.4881 314.144 33.4981 314.01 33.6554C313.897 33.7891 313.783 33.9263 313.669 34.0646C313.439 34.3425 313.206 34.6316 312.971 34.9308C312.763 35.1983 312.55 35.479 312.333 35.7716C313.622 35.3038 314.912 34.8356 316.2 34.3663C316.233 34.3286 316.266 34.2903 316.299 34.2531C316.746 33.7507 317.179 33.2875 317.598 32.8566C318.437 31.9951 319.219 31.2622 319.947 30.6202C321.403 29.3392 322.643 28.4101 323.722 27.6554C324.801 26.9038 325.722 26.3314 326.533 25.8546C326.632 25.7966 326.741 25.7322 326.824 25.6847C326.884 25.6498 326.944 25.615 327.004 25.5812C327.122 25.5136 327.238 25.4484 327.352 25.3849C327.58 25.2577 327.799 25.1382 328.009 25.0255C328.85 24.5755 329.56 24.2277 330.188 23.9347C330.811 23.6441 331.372 23.4002 331.836 23.2062C332.183 23.0605 332.503 22.9323 332.8 22.8156C333.993 22.3483 334.844 22.0637 335.379 21.8849C336.628 21.4749 337.23 21.3026 337.916 21.1046C342.143 19.9318 343.605 19.6427 345.655 19.1505C347.554 18.7085 349.227 18.3318 350.816 17.9777C359.128 16.196 364.89 14.9133 368.486 14.0568C368.031 13.8793 367.636 13.7319 367.305 13.6066C368.348 13.5614 369.7 13.4505 371.394 13.2638C371.595 13.1974 371.79 13.1306 371.98 13.0685C372.024 13.0906 372.069 13.1131 372.114 13.1359C373.038 12.8725 373.364 12.7304 373.154 12.6915C373.271 12.6543 373.386 12.6171 373.5 12.5812C372.809 12.2254 372.153 11.9017 371.531 11.6017C370.862 11.2897 370.501 11.1305 370.204 11.0011ZM367.305 13.6066C366.808 13.6281 366.381 13.6357 366.021 13.629C366.35 13.5761 366.669 13.5274 366.977 13.4786C367.078 13.5184 367.188 13.562 367.305 13.6066ZM371.478 12.8175C372.402 12.7028 372.974 12.6583 373.154 12.6915C372.783 12.8096 372.393 12.9336 371.98 13.0685C371.805 12.9806 371.638 12.8964 371.478 12.8175ZM367.022 11.9357C366.706 12.0421 366.416 12.1462 366.154 12.2462C366.491 12.1418 366.772 12.037 367.022 11.9357ZM459.882 7.82435C461.213 8.36948 462.765 9.13907 464.62 10.2755C465.305 10.397 465.981 10.53 466.646 10.6749C464.916 9.58354 463.409 8.7272 462.085 8.04993C461.36 7.96036 460.626 7.8851 459.882 7.82435ZM354.509 6.7306C355.086 6.79801 355.739 6.88326 356.501 7.0011C357.354 7.14 357.808 7.19635 359.672 7.58899C361.324 7.95128 363.356 8.44254 366.173 9.41712C366.373 9.4865 366.575 9.56186 366.783 9.63685C365.449 9.73498 364.474 9.78648 363.749 9.80188C363.499 9.72588 363.256 9.65244 363.02 9.58411C360.796 8.94171 358.993 8.57349 357.848 8.36145C356.94 8.19402 356.172 8.07516 355.498 7.98157C352.681 7.61217 351.895 7.61562 350.972 7.55774C350.051 7.51559 349.727 7.51328 349.306 7.50696C348.906 7.50277 348.684 7.5052 348.488 7.50696C348.299 7.50885 348.135 7.51166 348.047 7.5138C347.653 7.52426 347.683 7.52701 347.772 7.51966C347.986 7.50501 348.564 7.45825 349.138 7.40149C350.346 7.28412 351.723 7.11898 353.002 6.9347C353.478 6.8659 353.944 6.79378 354.397 6.71985C354.434 6.72366 354.472 6.7267 354.509 6.7306ZM391.473 6.3097C390.339 6.40154 389.073 6.51785 387.733 6.64759C387.562 6.76151 387.376 6.89098 387.165 7.03724C388.521 6.80467 389.96 6.56209 391.473 6.3097ZM360.59 5.08802C359.574 5.69423 357.245 6.25524 354.397 6.71985C350.441 6.31182 350.02 6.42564 349.171 6.38977C348.482 6.38567 348.189 6.39572 347.989 6.40052C347.604 6.41219 347.633 6.4158 347.717 6.41126C347.922 6.40221 348.486 6.36534 349.051 6.32142C350.239 6.22986 351.611 6.10382 352.912 5.97474C355.873 5.67938 358.638 5.35688 360.59 5.08802ZM446.335 3.9845C448.131 4.42062 449.972 4.95002 451.813 5.54895C452.221 5.63269 452.653 5.72318 453.11 5.82337C453.163 5.84405 453.217 5.8634 453.27 5.88294C454.334 5.82747 455.396 5.7972 456.449 5.79993C454.443 5.26193 453.097 5.2008 451.761 4.74622C449.325 4.30961 447.623 4.0947 446.335 3.9845ZM391.72 4.31946C391.633 4.40116 391.075 4.70053 390.455 5.02552C390.413 5.03006 390.371 5.03464 390.33 5.03919C390.571 4.90191 390.77 4.79044 390.929 4.70423C391.595 4.34879 391.705 4.31513 391.72 4.31946ZM438.605 3.9679C438.02 4.01491 437.61 4.0652 437.262 4.10462C436.507 4.2096 436.408 4.28659 437.135 4.32239C437.872 4.3731 438.675 4.30824 441.742 4.42102C440.697 4.254 439.65 4.10372 438.605 3.9679Z" fill="#F12323"/>
</svg>
