<svg width="524" height="291" viewBox="0 0 524 291" fill="none" xmlns="http://www.w3.org/2000/svg">
<path d="M507.45 0.0332031C507.379 0.0542789 507.292 0.0789164 507.026 0.163086C506.773 0.244303 506.416 0.35968 505.828 0.573242C505.755 0.600074 505.677 0.628683 505.595 0.65918C505.554 0.674453 505.511 0.689761 505.468 0.706055C505.42 0.724169 505.313 0.765484 505.229 0.797852C504.873 0.935631 504.447 1.10589 503.9 1.3418C502.776 1.85654 501.339 2.40397 498.216 4.41016C497.055 5.40373 498.058 3.74521 491.451 10.0967C489.645 12.1166 487.115 14.9616 484.979 19.5693C483.176 19.8633 481.152 20.3816 478.871 21.166C477.58 21.6156 476.154 22.1654 474.619 22.8184C469.281 25.0989 464.601 32.7727 458.837 39.9414C466.08 39.4898 473.624 39.0095 481.718 38.3486C482.55 45.7689 485.543 53.3972 489.547 57.8799C495.426 64.9894 500.635 67.3351 504.003 68.8994C504.109 68.9455 504.226 68.9949 504.318 69.0342C504.351 69.0479 504.384 69.0626 504.416 69.0762C504.427 69.0808 504.438 69.0853 504.449 69.0898C491.731 68.9272 499.485 77.0119 495.549 79.1123C493.899 80.0032 492.38 80.6087 490.848 80.9951C476.661 84.6398 470.56 66.368 450.495 69.8105C449.874 69.9153 445.953 74.0886 442.174 78.0898C442.282 78.122 442.404 78.1563 442.537 78.2002C442.735 78.2695 442.954 78.3546 443.198 78.4727C443.421 78.5775 443.995 78.8839 444.494 79.334C445.017 79.8075 445.578 80.4477 445.962 81.5078C446.366 82.6116 446.299 83.8689 446.022 84.7139C445.697 85.6729 445.5 85.8758 445.286 86.2129C445.075 86.5145 444.875 86.7427 444.691 86.9336C444.275 87.3537 444.144 87.4434 443.938 87.6123C443.748 87.7632 443.569 87.8908 443.398 88.0088C443.243 88.1162 443.146 88.1843 443.022 88.2666C442.512 88.6015 442.174 88.8185 441.789 89.0752C441.088 89.5503 440.471 90.0223 439.881 90.5674C438.786 91.5918 440.168 95.1811 439.35 96.2021C436.74 99.4463 432.779 101.077 428.644 101.838C430.467 102.898 431.825 103.283 431.996 103.479C436.395 105.076 436.643 104.697 437.523 104.877C437.779 104.897 437.977 104.907 438.128 104.914C437.802 104.935 437.356 104.976 436.909 105.044C433.655 105.513 429.434 106.959 424.74 109.632C423.733 110.228 422.62 110.892 421.527 111.62C422.659 111.832 424.086 112.161 425.991 112.691C427.477 113.155 429.365 113.737 432.498 115.295C435.679 117.354 441.01 118.452 449.109 130.868C453 137.056 455.342 147.425 454.241 155.065C453.273 162.932 450.776 167.59 449.035 170.691C445.365 176.712 443.361 178.272 441.976 179.798C439.142 182.234 436.72 184.13 434.637 185.622C435.338 185.783 436.136 185.98 437.095 186.241C437.417 186.329 437.758 186.424 438.122 186.531C438.737 186.71 439.54 186.957 440.411 187.251C442.186 187.863 444.389 188.638 447.781 190.344C449.485 191.215 451.506 192.329 454.016 194.059C454.643 194.493 455.302 194.967 455.992 195.493C456.337 195.756 456.691 196.033 457.053 196.323C457.938 197.032 459.024 197.957 460.098 198.963C464.322 202.989 470.189 209.461 473.917 220.596C477.836 231.539 476.875 246.853 472.02 256.939C467.329 267.253 461.226 272.873 456.993 276.326C453.537 279.072 450.755 280.681 448.469 281.892C443.91 284.242 441.144 285.089 438.961 285.777C437.879 286.104 436.968 286.346 436.163 286.545C435.678 286.664 435.599 286.681 435.382 286.731C435.19 286.776 435.004 286.817 434.824 286.856C432.032 287.461 430.212 287.677 429.125 287.81C425.28 288.223 423.918 288.2 422.332 288.257C419.246 288.327 417.207 288.29 414.874 288.26C406.185 288.098 398.533 287.776 390.615 287.523C389.52 287.486 388.401 287.449 387.26 287.413C378.793 287.131 385.656 291.167 373.248 290.995C327.962 290.331 251.374 291.331 212.438 282.204C206.441 281.86 200.392 281.618 193.953 282.104C188.898 282.468 192.518 287.147 191.515 287.575C181.142 291.74 188.843 283.242 182.226 282.343C163.548 279.743 143.629 280.222 122.64 279.889C114.253 279.64 123.61 285.682 115.582 285.294C113.27 285.157 110.752 285.014 106.761 284.511C104.833 284.217 103.329 284.131 99.252 283.169C99.0407 283.48 98.6778 283.697 98.0684 283.768C94.5216 284.183 90.891 284.611 92.2725 284.23C92.3793 284.185 92.6068 284.118 93.2275 283.934C93.8776 283.729 94.7296 283.517 97.0713 282.633C96.9013 282.589 96.727 282.546 96.5498 282.5C94.8295 281.986 94.1524 281.943 89.3389 280.062C84.9871 278.003 79.3725 276.537 68.8545 266.286C64.3336 262.562 59.3401 254.47 56.1455 244.776C55.4609 243.483 54.8017 241.926 54.2217 240.024C53.9033 239.06 53.6903 238.047 53.5654 237.012C48.7509 236.84 49.4293 232.972 41.5693 234.896C40.7997 235.089 41.2479 238.594 35.4697 239.026C31.6385 239.323 27.5566 239.635 24.4824 239.892C23.7596 239.949 23.0763 240.011 22.8926 240.003C22.8327 239.991 22.9073 239.97 23.6846 239.789C24.078 239.693 24.9941 239.499 26.6992 238.997C26.9344 238.927 27.0966 238.878 27.458 238.766C27.9016 238.627 28.4034 238.464 28.9854 238.261C30.1558 237.848 31.6239 237.309 33.7607 236.312C34.8328 235.807 36.0794 235.182 37.5898 234.31C37.9676 234.091 38.3624 233.855 38.7754 233.601C39.2523 233.299 39.3414 233.273 40.8643 232.243C43.3293 230.527 46.4377 228.2 50.167 223.994C51.0818 222.944 52.0554 221.75 53.04 220.397C53.4057 216.599 54.237 212.875 55.6445 209.354C56.0545 208.057 56.5222 206.795 57.0254 205.579C52.7735 205.477 48.5319 205.361 44.2988 205.232C36.8517 205.001 29.5443 204.745 22.0508 204.37C20.1459 204.273 18.3595 204.17 16.293 204.029C15.8538 203.996 15.2644 203.955 14.7559 203.913C14.4961 203.892 14.2504 203.87 13.9961 203.847C13.6877 203.821 13.3889 203.793 13.0967 203.764C12.5766 203.708 11.8015 203.631 10.9697 203.501C10.8804 203.487 10.7177 203.462 10.5381 203.432C10.3619 203.402 10.1753 203.368 9.97266 203.328C9.76964 203.288 9.54974 203.241 9.30078 203.181C9.17614 203.15 9.04343 203.116 8.90137 203.077C8.8306 203.058 8.75679 203.038 8.68066 203.016C8.64261 203.005 8.60305 202.993 8.56348 202.981C8.49871 202.962 8.40123 202.933 8.31445 202.905C7.58741 202.653 6.6583 202.412 4.95312 201.281C4.11086 200.691 3.00582 199.829 1.88867 198.207C0.254964 196.443 -0.859917 190.371 0.87207 187.353C2.35468 184.184 4.009 183.149 4.98145 182.419C5.09747 182.339 5.27224 182.226 5.3125 182.201C5.35783 182.172 5.40249 182.144 5.44629 182.117C5.53409 182.063 5.61915 182.012 5.70117 181.964C5.86528 181.868 6.01922 181.785 6.16309 181.709C6.73755 181.408 7.17106 181.228 7.54199 181.084C7.91127 180.942 8.21544 180.842 8.48926 180.758C8.64836 180.709 8.69958 180.696 8.77734 180.674C8.85053 180.654 8.92183 180.634 8.99121 180.616C9.26888 180.543 9.52102 180.483 9.7627 180.431C9.99413 180.38 10.2679 180.326 10.4346 180.296C10.5946 180.267 10.754 180.24 10.9131 180.214C11.2312 180.162 11.5518 180.114 11.8818 180.067C12.1614 180.029 12.4029 180 12.6738 179.967C13.8448 179.822 14.6866 179.748 15.7471 179.647C17.6186 179.482 19.5839 179.332 21.3984 179.205C34.3581 178.329 47.0843 177.616 59.9072 176.638C59.5152 175.447 59.0763 174.297 58.5928 173.2C58.5824 173.175 58.571 173.151 58.5605 173.126C58.0689 173.073 57.5241 173.013 56.7803 172.919C56.5091 172.884 56.2251 172.847 55.9219 172.806C55.5614 172.756 55.0754 172.684 54.5664 172.604C54.0475 172.521 53.4629 172.422 52.7402 172.286C51.57 172.055 50.1598 171.799 47.4248 171.021C47.0777 170.92 46.7053 170.809 46.3018 170.683C45.7959 170.519 45.8434 170.553 44.29 170.012C41.7076 168.993 38.3845 168.098 31.332 163.349C26.2291 158.443 5.41033 148.39 10.0117 110.497C13.6264 93.8922 23.0553 84.9191 28.5859 80.4189C34.4807 75.8059 38.4151 74.1368 41.3623 72.8398C44.2277 71.6354 46.5614 70.9463 47.71 70.6201C48.3075 70.4511 48.8479 70.3088 49.3438 70.1846C50.335 69.9368 51.1541 69.7581 51.8691 69.6133C53.2935 69.327 54.3172 69.1686 55.1748 69.0449C55.6016 68.984 55.983 68.9337 56.332 68.8906C56.5834 68.8596 56.7478 68.8405 56.9404 68.8184C57.3108 68.776 57.645 68.7406 57.9541 68.71C58.5716 68.649 59.0923 68.6058 59.5654 68.5693C60.3974 68.506 60.8435 68.4773 61.4043 68.4443C61.6676 68.429 61.9384 68.4154 62.1719 68.4033C62.3652 68.3931 62.5557 68.3832 62.7441 68.374C64.3495 68.2986 65.4455 68.2629 66.5918 68.2266C68.8676 68.1571 70.7706 68.1145 72.7539 68.0752C80.5301 67.9267 87.8632 67.8622 95.376 67.8135C119.643 67.6106 144.907 67.824 169.821 68.0605C170.164 67.3959 170.714 66.8278 171.6 66.4414C175.6 64.6932 179.428 69.366 186.098 67.4355C189.776 66.3484 190.721 64.0224 193.009 62.2119C192.572 62.0141 192.165 61.8336 191.779 61.6689C189.395 60.6572 187.645 60.0926 186.715 59.7969C185.941 59.5535 185.316 59.3747 184.783 59.2285C183.742 58.943 182.948 58.7613 182.622 58.6875C181.881 58.5206 181.413 58.4308 181.186 58.3887C182.024 58.5211 183.397 58.7169 184.737 58.9004C187.828 59.3225 191.199 59.7656 194.628 60.2314C195.219 60.3113 195.811 60.3926 196.402 60.4736C198.092 59.9658 200.327 59.6805 203.442 59.7627C204.969 59.8059 206.428 59.8508 208.009 59.9121C215.544 60.1945 223.588 60.6836 231.86 61.3203C231.916 61.1049 231.973 60.892 232.033 60.6826C235.711 48.5185 241.282 44.8383 244.077 42.2744C245.576 41.0695 246.931 40.1855 247.757 39.6758C248.176 39.4163 248.563 39.189 248.924 38.9834C251.767 37.3937 253.192 36.8896 254.383 36.416C255.291 36.0716 255.712 35.9291 256.244 35.75C256.742 35.5842 257.174 35.4485 257.571 35.3291C257.878 35.2363 258.135 35.1625 258.396 35.0889C259.479 34.7856 260.161 34.6261 260.86 34.4756C262.205 34.1909 263.297 34.0394 264.361 33.9463C266.47 33.7665 268.562 33.8168 270.566 34.0938C274.705 34.6257 278.911 35.9896 283.348 38.165C290.396 41.68 287.187 47.5088 299.586 45.5586C301.221 45.3051 303.157 44.9109 305.429 44.3633C302.838 42.1083 300.59 40.7736 299.729 40.2695C295.471 37.9786 293.629 37.3553 292.496 37.0703C292.867 37.1229 293.253 37.1759 293.646 37.2256C297.142 37.6708 301.31 38.0342 305.558 38.3301C308.251 38.5156 311.009 38.6726 313.824 38.8066C315.24 35.6326 315.441 31.926 320.489 29.7744C328.413 26.4124 337.659 25.1755 347.285 24.6377C352.112 24.3676 356.967 24.2797 361.905 24.1865C364.329 24.1464 366.828 24.0972 369.386 24.0332C370.756 23.9942 371.865 23.969 373.806 23.8955C374.213 23.8888 374.919 23.8377 376.335 23.8154C377.188 23.8274 377.807 23.7015 381.031 24.042C381.9 24.1529 382.986 24.2949 384.748 24.7266C384.803 24.7403 384.859 24.7551 384.916 24.7695C384.944 24.7767 384.973 24.7837 385.001 24.791C385.101 24.8168 385.234 24.8529 385.355 24.8857C385.852 25.0201 386.403 25.1817 387.027 25.3896C387.901 25.6852 388.917 26.0564 390.149 26.6289C400.491 24.9569 410.845 23.4527 421.788 19.9473C436.4 15.2468 451.315 5.82613 466.658 0.777344C469.005 2.52247 471.805 3.57196 474.746 4.15137C481.067 5.32871 488.5 4.33384 495.985 2.76758C499.654 1.99855 503.637 1.0234 506.576 0.265625C506.749 0.220594 506.904 0.178981 507.037 0.143555C507.2 0.100439 507.335 0.0644655 507.427 0.0390625C507.494 0.0204641 507.552 0.0042567 507.566 0C507.555 0.00307947 507.519 0.0130888 507.45 0.0332031ZM400.687 156.25C397.948 156.25 394.455 156.745 392.004 157.111C389.078 157.549 385.616 158.132 382.176 158.721C371.405 160.563 364.235 160.806 355.662 161.779L353.928 161.984C344.434 163.153 336.657 169.139 338.338 168.143C334.924 170.166 331.354 173.562 329.457 178.674C327.64 183.569 328.107 188.033 328.84 190.97C330.106 196.04 333.073 199.995 334.154 201.445C334.914 202.464 335.697 203.442 336.283 204.173C336.839 204.866 337.239 205.365 337.588 205.814C337.718 206.953 337.799 208.906 337.612 211.934C337.488 213.953 337.283 216.019 337.053 218.287C336.841 220.374 336.572 222.934 336.445 225.236C336.234 229.065 335.727 242.555 338.564 260.61C339.799 268.463 343.858 276.254 352.054 280.676C359.116 284.486 366.337 284.117 370.521 283.558C374.982 282.961 379.192 281.66 381.732 280.865C384.176 280.1 384.987 279.868 385.054 279.823C389.252 279.437 401.181 279.088 411.489 279.674L411.843 279.694L412.197 279.7C419.735 279.831 426.231 279.617 430.599 279.13C432.01 279.062 434.289 279.054 437.441 279.054C447.382 279.053 455.441 270.994 455.441 261.054C455.441 251.113 447.382 243.054 437.441 243.054C434.511 243.054 430.72 243.045 427.926 243.224L427.376 243.259L426.83 243.327C424.985 243.559 420.241 243.825 413.085 243.709C401.042 243.053 386.836 243.416 380.75 244.072C378.357 244.33 376.162 244.937 374.937 245.29C374.305 245.472 373.622 245.68 372.966 245.884C372.863 244.829 372.776 243.808 372.7 242.824C374.034 242.563 375.49 242.262 376.848 241.981C378.92 241.553 380.966 241.132 382.854 240.78C388.722 239.687 394.483 237.589 399.989 234.417C400.438 234.393 401.116 234.381 402.087 234.418C403.645 234.478 405.352 234.627 407.606 234.828C409.667 235.012 412.305 235.251 414.903 235.339L416.462 235.392L418.006 235.176C420.189 234.871 421.89 234.401 423.058 234.044C423.248 233.986 423.424 233.929 423.564 233.885C423.578 233.883 423.593 233.881 423.607 233.879C423.818 233.848 424.094 233.808 424.406 233.759C425.774 233.543 427.463 233.222 429.626 232.638C439.222 230.044 444.899 220.161 442.306 210.564C439.712 200.968 429.829 195.29 420.232 197.884C419.503 198.081 419.099 198.151 418.804 198.197C418.428 198.256 418.507 198.24 417.833 198.341C417.492 198.392 416.943 198.476 416.288 198.605L415.602 198.751C414.892 198.911 414.274 199.086 413.807 199.225C412.927 199.158 411.944 199.071 410.802 198.97C408.745 198.786 406.1 198.545 403.466 198.444C399.174 198.28 390.817 198.178 383.256 202.493L382.526 202.925C380.347 204.262 378.259 205.017 376.259 205.39C375.402 205.549 374.532 205.719 373.672 205.89C373.546 202.849 373.189 199.573 372.398 196.315C377.318 195.799 382.835 195.13 388.244 194.205C391.709 193.613 394.821 193.09 397.324 192.716C398.574 192.529 399.554 192.398 400.275 192.316C400.702 192.268 400.921 192.251 400.979 192.246C410.785 192.09 418.686 184.093 418.687 174.25C418.687 164.464 410.877 156.503 401.151 156.256L400.687 156.25ZM107.286 277.46C105.352 277.543 103.405 277.679 101.437 277.885C98.9192 278.189 99.4087 280.073 99.5039 281.633C100.454 281.211 101.638 280.642 103.184 279.813C104.31 278.959 105.603 278.437 107.286 277.46ZM126.703 85.0625C117.661 71.4508 102.384 72.5238 96.6758 73.5557C90.3757 74.6947 84.2571 77.3828 79.2354 80.7207C78.9751 80.7871 78.6508 80.8672 78.207 80.9785C77.4546 81.1673 76.2929 81.46 75.0635 81.8271L70.5947 83.1611L67.0762 86.252C64.7663 88.2808 63.2754 90.408 62.4043 91.834C53.1895 95.0578 47.0463 104.37 48.1172 114.591C48.7305 120.443 51.4838 129.635 53.8936 136.608C56.2582 143.451 58.1949 152.022 60.1006 160.059C61.0207 163.939 61.6984 167.674 62.4238 171.769C63.1149 175.669 63.9045 180.236 64.9668 184.724C65.5112 187.024 65.8248 189.746 66.3574 194.427C66.8245 198.531 67.4788 204.281 68.9688 210.045C70.3993 215.579 71.4318 224.293 72.6689 233.992C73.2459 238.516 73.924 243.504 74.7471 247.832C75.1578 249.992 75.6755 252.37 76.3447 254.647C76.8799 256.469 78.0413 260.149 80.4102 263.673C86.2519 272.363 95.3319 274.355 101.412 273.951C106.832 273.591 111.162 271.496 113.987 269.614C121.025 264.926 127.232 259.382 133.361 251.655C141.385 241.54 144.862 232.283 148.417 219.963C153.003 204.068 153.827 191.022 153.995 140.993C154.028 131.084 152.768 122.724 150.02 115.133C147.635 108.547 144.447 103.472 141.706 99.5273L140.562 97.9053L140.146 97.3311C135.8 91.4761 130.429 87.8321 128.463 86.3994C127.509 85.7044 126.97 85.278 126.703 85.0625ZM227.079 88.9834C220.113 89.69 215.58 90.3672 208.999 90.3057L206.297 90.2803L203.706 91.0488C199.845 92.1956 195.634 93.4833 191.645 94.6045C189.679 95.1568 187.925 95.6233 186.463 95.9736C186.396 95.9896 186.33 96.0033 186.266 96.0186C183.432 94.2078 180.059 93.1689 176.445 93.1973C166.505 93.2759 158.509 101.398 158.588 111.339C158.618 115.157 159.32 124.494 159.719 131.649C160.188 140.065 160.913 149.09 160.629 156.55C160.319 164.672 160.96 175.307 161.226 182.292C161.491 189.262 161.983 195.927 162.138 203.272C162.211 206.758 162.171 210.023 162.128 213.551C162.085 217.001 162.039 220.75 162.136 224.706C162.195 227.116 162.254 230.905 162.767 234.333C163.224 237.387 164.521 244.139 170.134 249.464L172.398 251.612L175.254 252.873C184.123 256.788 193.741 257.797 203.247 255.782L205.047 255.401L206.732 254.663C212.027 252.346 215.735 248.623 218.534 244.256C223.898 235.887 221.462 224.753 213.093 219.389C208.457 216.417 202.973 215.839 198.091 217.337C198.1 216.256 198.112 215.147 198.126 213.993C198.168 210.538 198.219 206.691 198.131 202.515C198.104 201.22 198.059 199.868 198.01 198.491C198.285 198.409 198.717 198.283 199.345 198.111C200.603 197.767 202.227 197.35 204.27 196.837L204.87 196.686L205.458 196.494C208.853 195.388 210.324 194.844 212.203 194.481C213.871 194.541 216.556 194.791 220.577 195.204C230.466 196.22 239.306 189.027 240.322 179.139C241.338 169.25 234.146 160.409 224.257 159.393C220.344 158.99 214.675 158.372 210.326 158.479L209.254 158.507L208.193 158.66C203.329 159.364 199.366 160.587 196.541 161.521C196.541 160.266 196.559 159.063 196.603 157.922C196.952 148.75 196.145 137.788 195.73 130.765C197.701 130.278 199.648 129.749 201.383 129.262C204.764 128.312 208.404 127.219 211.498 126.293C218.771 126.184 224.786 125.431 229.615 124.917C230.363 124.961 231.464 125.064 233.247 125.247C243.136 126.263 251.977 119.07 252.993 109.181C254.009 99.2919 246.816 90.4519 236.927 89.4355C234.983 89.2358 231.844 88.8944 228.912 88.8916L227.994 88.8906L227.079 88.9834ZM296.001 79.1592C284.991 76.718 276.808 82.0622 272.732 85.7148C270.697 87.5392 269.118 89.4101 268.209 90.5078C266.854 92.1439 267.055 91.912 267.188 91.7783C257.854 101.212 258.032 113.387 258.284 118.982C258.358 120.614 258.481 122.188 258.584 123.478C258.695 124.864 258.78 125.891 258.837 126.882C258.96 129.032 258.826 129.406 258.907 129.021C257.179 137.146 254.802 153.202 256.567 166.219C257.85 175.674 263.604 181.797 267.686 185.211C271.555 188.448 276.34 191.157 278.498 192.464C280.826 193.874 283.154 194.807 285.368 195.41C285.189 197.466 284.965 199.809 284.693 202.467C284.628 203.111 284.436 203.833 283.59 205.225C283.113 206.009 282.505 206.883 281.599 208.118C280.914 209.052 279.778 210.564 278.747 212.033C278.578 212.143 278.286 212.323 277.822 212.56C277.048 212.955 276.033 213.403 274.592 213.98C274.388 214.062 274.189 214.139 273.995 214.216C270.578 213.66 267.87 213.016 265.145 212.321C261.206 206.947 254.425 203.976 247.426 205.236C237.642 206.998 231.139 216.357 232.9 226.141C233.171 227.645 233.832 231.324 235.928 235.016C238.509 239.561 242.314 242.641 246.501 244.494L248.079 245.193L249.761 245.579C253.91 246.531 262.44 249.189 274.018 250.563L278.492 251.095L282.691 249.454C285.462 248.371 290.189 246.665 294.188 244.624C298.506 242.421 303.924 238.931 308.042 232.958C309.681 230.581 319.07 220.197 320.507 206.123C321.262 198.72 322.092 190.422 321.746 183.97C321.586 180.987 321.106 175.924 318.626 171.134C317.246 168.469 314.908 165.225 311.057 162.782C307.288 160.392 303.204 159.49 299.449 159.561L298.702 159.588C298.027 159.624 297.432 159.685 296.964 159.743C296.492 159.802 296.067 159.867 295.725 159.924C295.328 159.989 294.913 160.064 294.58 160.126C294.05 159.806 293.552 159.501 293.025 159.167C292.626 158.913 292.283 158.685 291.989 158.485C291.673 151.703 292.85 142.477 294.119 136.513C294.454 134.941 294.651 133.39 294.765 131.917C297.722 133.766 301.247 134.778 304.994 134.632C314.927 134.245 322.668 125.879 322.281 115.945C322.136 112.211 321.167 102.596 316.114 93.6289L315.613 92.7637L315.359 92.3457C310.306 84.2079 302.282 80.8433 297.462 79.5225L296.527 79.2803L296.001 79.1592ZM99.8428 118.861C101.315 120.065 102.571 120.958 103.393 121.557C105.1 122.801 105.76 123.338 105.948 123.486C108.207 126.672 109.124 128.284 109.755 130.027C110.379 131.75 111.14 134.815 111.12 140.847C111.017 171.68 110.574 186.404 109.682 195.179C109.438 193.587 109.21 191.734 108.953 189.475C108.521 185.675 107.942 180.032 106.666 174.64C105.952 171.622 105.387 168.409 104.629 164.129C103.905 160.043 103.037 155.193 101.796 149.958C100.148 143.009 97.6338 131.755 94.3721 122.316C94.3015 122.112 94.2316 121.907 94.1621 121.703C94.2733 121.572 94.3829 121.441 94.4912 121.311C96.0763 120.738 97.9283 119.951 99.8428 118.861ZM391.538 41.4727C386.972 38.0058 378.173 32.0992 366.129 32.5215C356.242 32.8683 344.262 34.3856 343.492 34.4453C333.829 35.1927 326.541 43.4392 326.893 53.0371C323.788 56.2714 321.88 60.6628 321.88 65.5C321.88 72.9481 322.908 90.3839 323.62 96.5967C323.926 99.2678 324.428 102.179 324.816 104.51C325.239 107.045 325.608 109.347 325.866 111.642C326.505 117.316 326.865 124.618 327.308 130.295L327.332 130.597L327.365 130.897C327.433 131.499 327.509 132.031 327.57 132.435C327.623 132.78 327.696 133.232 327.723 133.399C327.798 133.875 327.815 134.025 327.823 134.121C327.865 134.591 327.88 135.452 327.88 137.5C327.88 145.629 333.268 152.497 340.668 154.732C343.103 155.962 345.855 156.655 348.77 156.655C348.829 156.655 348.883 156.655 348.932 156.655C351.124 157.081 353.176 157.21 354.054 157.27C356.166 157.412 358.667 157.493 361.299 157.5C366.428 157.513 373.009 157.247 378.86 156.31L382.012 155.805L384.797 154.247C388.056 152.425 396.837 147.899 402.152 139.664C403.299 137.887 406.088 133.801 407.768 131.049C409.198 128.705 412.631 123.094 413.34 116.752C414.277 108.366 414.071 95.6673 412.107 86.8398C411.256 83.0142 410.146 77.8575 408.382 72.8926C408.062 71.9926 407.921 71.2126 407.149 68.1143C406.585 65.8484 405.519 61.6673 403.304 57.6387C403.098 57.2646 402.872 56.8038 402.376 55.7725C401.955 54.8968 401.288 53.5015 400.492 52.0635C398.83 49.0605 396.132 44.9605 391.538 41.4727ZM406.032 140.011C406.398 140.75 406.725 141.579 407.079 142.455C408.828 146.648 409.109 152.221 410.887 153.683C412.403 154.811 413.938 154.698 415.367 153.262C415.583 153.026 415.818 152.769 416.107 152.262C416.254 151.993 416.421 151.65 416.511 151.143C416.611 150.628 416.537 149.91 416.275 149.391C415.717 148.334 415.094 148.113 414.723 147.911C414.327 147.73 414.02 147.643 413.712 147.553C412.584 147.25 411.687 147.001 410.791 146.215C407.709 143.634 415.626 142.107 407.546 140.234C407.085 140.135 406.577 140.063 406.032 140.011ZM17.5557 142.979C16.9889 142.955 17.0062 142.984 17.1152 143.008C17.3781 143.061 18.0709 143.124 18.8945 143.179C19.3006 143.204 19.7153 143.228 20.1367 143.252C19.89 143.216 19.6712 143.188 19.4756 143.162C18.4613 143.036 17.9104 143 17.5557 142.979ZM367.292 68.5566C367.653 68.7137 368.212 69.0226 369.064 69.6279C369.266 70.0025 369.504 70.4834 369.93 71.3682C370.311 72.162 370.932 73.4607 371.654 74.791C371.603 74.6932 371.799 75.1376 372.215 76.8096C372.332 77.2792 372.445 77.7513 372.587 78.3389C372.721 78.8944 372.878 79.5439 373.048 80.21C373.381 81.5181 373.835 83.1921 374.46 84.9492C375.343 87.4346 375.998 90.3024 376.967 94.6582C377.785 98.3356 378.107 105.73 377.705 111.154C377.541 111.449 377.325 111.826 377.04 112.293C376.427 113.296 375.688 114.426 374.781 115.791C374.007 116.955 373.049 118.383 372.149 119.768C372.049 119.854 371.879 119.993 371.618 120.182C371.206 120.479 370.738 120.784 370.167 121.132C367.89 121.347 365.314 121.466 362.781 121.493C362.484 117.109 362.105 111.738 361.641 107.615C361.265 104.279 360.751 101.142 360.327 98.5967C359.869 95.8474 359.563 94.0335 359.387 92.499C358.92 88.4266 358.176 76.4515 357.949 69.1143C360.677 68.8596 363.732 68.6333 367.169 68.5078C367.2 68.5199 367.242 68.535 367.292 68.5566ZM438.593 104.903C438.619 104.903 438.647 104.938 438.128 104.914C438.355 104.9 438.523 104.895 438.593 104.903ZM423.335 81.6562C421.601 81.6997 419.923 81.7184 418.286 81.7285C418.184 83.0069 418.192 84.3503 418.363 85.7188C418.961 85.568 419.576 85.4194 420.206 85.2646C421.825 84.1123 423.03 82.8031 423.335 81.6562ZM512.412 71.4443C515.67 72.0417 516.994 71.9887 518.128 72.0537C518.838 72.0711 518.909 72.0673 519.156 72.0684C519.37 72.068 519.559 72.0666 519.728 72.0635C520.065 72.0572 520.327 72.0466 520.542 72.0371C520.68 72.0309 520.8 72.0205 520.902 72.0146C519.976 72.093 518.525 72.2275 517.339 72.3037C514.969 72.4764 513.561 72.0397 512.412 71.4443ZM521.539 71.9697C521.498 71.9745 521.425 71.9819 521.309 71.9912C521.25 71.9959 521.114 72.0024 520.902 72.0146C521.145 71.9942 521.352 71.9753 521.508 71.9648C521.571 71.9615 521.622 71.96 521.539 71.9697ZM504.449 69.0898C505.272 69.1004 506.18 69.1451 507.183 69.2285C509.701 69.4622 510.802 70.6101 512.412 71.4443C512.002 71.3691 511.559 71.286 511.084 71.1885C509.993 70.9475 508.69 70.6226 507.025 70.0635C506.609 69.9232 506.169 69.7663 505.703 69.5898C505.47 69.5018 505.229 69.4075 504.982 69.3086C504.859 69.2589 504.735 69.2089 504.607 69.1562C504.555 69.1344 504.502 69.1121 504.449 69.0898ZM181.127 58.3779C181.144 58.3811 181.164 58.3847 181.186 58.3887C181.09 58.3735 181 58.3611 180.919 58.3477C180.745 58.3188 180.623 58.2957 180.717 58.3086C180.756 58.3139 180.89 58.3347 181.127 58.3779ZM518.613 30.5645C518.801 30.5643 518.985 30.567 519.195 30.5781C519.336 30.5849 519.609 30.591 519.982 30.6455C520.179 30.6762 520.419 30.7148 520.794 30.8311C520.888 30.8608 520.991 30.8973 521.106 30.9424C521.135 30.9537 521.165 30.9649 521.195 30.9775C521.211 30.9839 521.227 30.9904 521.242 30.9971C521.265 31.0068 521.337 31.0381 521.387 31.0615C521.608 31.1649 521.869 31.304 522.173 31.5254C522.756 31.9389 523.653 32.869 523.918 34.2441C524.196 35.6185 523.713 36.8127 523.326 37.4072C522.921 38.0347 522.579 38.3163 522.326 38.5273C522.265 38.5763 522.191 38.6315 522.155 38.6572C522.14 38.6681 522.126 38.6792 522.111 38.6895C522.082 38.71 522.054 38.7288 522.026 38.7471C521.917 38.8201 521.822 38.8783 521.737 38.9268C521.568 39.0229 521.436 39.086 521.319 39.1387C521.092 39.2407 520.905 39.3062 520.764 39.3535C519.315 39.7579 518.614 39.766 517.58 39.8691C515.676 40.0088 513.95 39.9165 512.152 39.6426C507.967 38.9526 505.561 36.4197 503.656 33.3633C504.218 33.1949 504.788 33.0265 505.365 32.8633C508.92 31.8607 512.668 30.9701 516.572 30.6484C516.83 30.628 517.073 30.6123 517.3 30.6016C517.585 30.5851 517.877 30.5728 518.133 30.5693C518.199 30.5683 518.256 30.5681 518.33 30.5674C518.426 30.5653 518.52 30.5646 518.613 30.5645ZM484.979 19.5693C497.722 17.4927 499.492 26.6803 503.656 33.3633C497.233 35.2879 491.851 37.4543 488.684 37.7451C487.245 37.8752 485.772 38.006 484.269 38.1377C483.412 38.2108 482.562 38.2797 481.718 38.3486C481.294 34.5663 481.43 30.8377 482.282 27.6074C483.003 24.4435 483.946 21.8001 484.979 19.5693ZM289.634 36.5479C289.399 36.4789 289.221 36.3168 291.033 36.7031C291.492 36.8613 291.894 36.9188 292.496 37.0703C291.223 36.8897 290.138 36.7005 289.634 36.5479Z" fill="#818181"/>
</svg>
