<svg width="524" height="291" viewBox="0 0 524 291" fill="none" xmlns="http://www.w3.org/2000/svg">
<path d="M507.45 0.0332031C507.379 0.0542571 507.292 0.0790646 507.027 0.163086C506.773 0.244296 506.416 0.359707 505.829 0.573242C505.755 0.60012 505.676 0.628623 505.594 0.65918C505.553 0.674408 505.511 0.689811 505.468 0.706055C505.42 0.724147 505.314 0.765482 505.23 0.797852C504.873 0.935631 504.447 1.10589 503.901 1.3418C502.776 1.85656 501.34 2.40388 498.216 4.41016C497.056 5.40392 498.058 3.74511 491.452 10.0967C489.646 12.1166 487.115 14.9616 484.98 19.5693C483.176 19.8633 481.153 20.3816 478.872 21.166C477.58 21.6156 476.155 22.1654 474.62 22.8184C469.281 25.0989 464.602 32.7726 458.837 39.9414C466.08 39.4898 473.624 39.0095 481.718 38.3486C482.55 45.769 485.543 53.3972 489.547 57.8799C495.426 64.9894 500.636 67.3351 504.003 68.8994C504.11 68.9456 504.226 68.9949 504.319 69.0342C504.351 69.0479 504.384 69.0626 504.417 69.0762C504.427 69.0808 504.439 69.0853 504.45 69.0898C491.732 68.9272 499.486 77.0119 495.549 79.1123C493.899 80.0033 492.38 80.6087 490.848 80.9951C476.661 84.6398 470.561 66.368 450.496 69.8105C449.875 69.9145 445.954 74.0882 442.174 78.0898C442.283 78.122 442.404 78.1562 442.538 78.2002C442.735 78.2695 442.954 78.3545 443.199 78.4727C443.421 78.5775 443.996 78.8839 444.495 79.334C445.018 79.8075 445.579 80.4477 445.962 81.5078C446.367 82.6116 446.299 83.8689 446.023 84.7139C445.697 85.6729 445.501 85.8758 445.287 86.2129C445.076 86.5145 444.875 86.7426 444.692 86.9336C444.275 87.3536 444.145 87.4434 443.939 87.6123C443.748 87.7632 443.57 87.8908 443.399 88.0088C443.244 88.1163 443.146 88.1842 443.023 88.2666C442.512 88.6015 442.175 88.8185 441.79 89.0752C441.088 89.5503 440.471 90.0223 439.881 90.5674C438.786 91.5918 440.169 95.1811 439.35 96.2021C436.741 99.4464 432.779 101.077 428.644 101.838C430.466 102.898 431.824 103.282 431.996 103.479C436.395 105.076 436.644 104.697 437.524 104.877C437.78 104.897 437.977 104.907 438.127 104.914C437.802 104.935 437.356 104.976 436.91 105.044C433.656 105.513 429.435 106.959 424.741 109.632C423.734 110.228 422.62 110.892 421.528 111.62C422.659 111.832 424.086 112.161 425.992 112.691C427.478 113.155 429.365 113.737 432.499 115.295C435.68 117.354 441.01 118.452 449.11 130.868C453.001 137.056 455.343 147.425 454.242 155.065C453.273 162.932 450.777 167.59 449.036 170.691C445.365 176.712 443.361 178.272 441.976 179.798C439.143 182.234 436.72 184.13 434.636 185.622C435.338 185.783 436.136 185.98 437.095 186.241C437.417 186.329 437.758 186.424 438.123 186.531C438.738 186.71 439.541 186.957 440.412 187.251C442.186 187.863 444.389 188.638 447.782 190.344C449.486 191.215 451.506 192.329 454.016 194.059C454.643 194.493 455.302 194.967 455.993 195.493C456.338 195.756 456.691 196.033 457.053 196.323C457.938 197.032 459.024 197.957 460.097 198.963C464.321 202.989 470.19 209.461 473.917 220.596C477.836 231.539 476.875 246.853 472.02 256.939C467.329 267.253 461.227 272.873 456.994 276.326C453.537 279.071 450.756 280.681 448.469 281.892C443.911 284.242 441.144 285.089 438.961 285.777C437.88 286.104 436.968 286.346 436.164 286.545C435.678 286.664 435.599 286.681 435.382 286.731C435.19 286.776 435.004 286.817 434.825 286.856C432.033 287.461 430.213 287.677 429.125 287.81C425.28 288.223 423.918 288.2 422.332 288.257C419.246 288.327 417.207 288.29 414.875 288.26C406.186 288.098 398.534 287.776 390.616 287.523C389.52 287.486 388.401 287.449 387.26 287.413C378.793 287.131 385.657 291.167 373.249 290.995C327.963 290.331 251.375 291.331 212.439 282.204C206.441 281.86 200.392 281.618 193.954 282.104C188.898 282.468 192.518 287.147 191.515 287.575C181.142 291.74 188.843 283.242 182.226 282.343C163.548 279.743 143.629 280.222 122.64 279.889C114.253 279.64 123.61 285.682 115.583 285.294C113.27 285.157 110.753 285.014 106.761 284.511C104.834 284.217 103.329 284.131 99.2524 283.169C99.0412 283.48 98.6784 283.697 98.0688 283.768C94.5219 284.183 90.891 284.611 92.2729 284.23C92.3798 284.185 92.6072 284.118 93.228 283.934C93.8781 283.729 94.7302 283.517 97.0718 282.633C96.9018 282.589 96.7275 282.546 96.5503 282.5C94.8299 281.986 94.1531 281.944 89.3394 280.062C84.9875 278.003 79.3732 276.537 68.855 266.286C64.334 262.562 59.3406 254.47 56.146 244.776C55.4614 243.483 54.8012 241.926 54.2212 240.024C53.9028 239.06 53.6908 238.047 53.5659 237.012C48.7513 236.84 49.4298 232.972 41.5698 234.896C40.8 235.088 41.2489 238.594 35.4702 239.026C31.6387 239.323 27.5562 239.635 24.4819 239.892C23.7595 239.949 23.077 240.011 22.8931 240.003C22.8332 239.991 22.9076 239.97 23.6851 239.789C24.0785 239.693 24.9945 239.499 26.6997 238.997C26.9349 238.927 27.0962 238.878 27.4575 238.766C27.9012 238.627 28.4037 238.464 28.9858 238.261C30.1563 237.848 31.6244 237.309 33.7612 236.312C34.8334 235.807 36.0798 235.182 37.5903 234.31C37.9681 234.091 38.3629 233.855 38.7759 233.601C39.2527 233.299 39.3419 233.273 40.8647 232.243C43.3298 230.527 46.4372 228.2 50.1665 223.994C51.0814 222.944 52.0558 221.75 53.0405 220.397C53.4062 216.599 54.2375 212.875 55.645 209.354C56.055 208.057 56.5227 206.795 57.0259 205.579C52.7739 205.477 48.5316 205.361 44.2983 205.232C36.8514 205.001 29.5446 204.745 22.0513 204.37C20.1463 204.273 18.3601 204.17 16.2935 204.029C15.8543 203.996 15.2649 203.955 14.7563 203.913C14.4966 203.892 14.2508 203.87 13.9966 203.847C13.6882 203.821 13.3894 203.793 13.0972 203.764C12.5771 203.708 11.8021 203.631 10.9702 203.501C10.8809 203.487 10.7182 203.462 10.5386 203.432C10.3623 203.402 10.1759 203.368 9.97314 203.328C9.7701 203.288 9.55026 203.241 9.30127 203.181C9.17661 203.15 9.04395 203.116 8.90186 203.077C8.83104 203.058 8.75734 203.038 8.68115 203.016C8.64305 203.005 8.6036 202.993 8.56396 202.981C8.49912 202.962 8.40089 202.933 8.31396 202.905C7.58699 202.654 6.65843 202.412 4.95361 201.281C4.11135 200.691 3.00631 199.829 1.88916 198.207C0.255438 196.443 -0.859494 190.371 0.872559 187.353C2.35517 184.184 4.00949 183.149 4.98193 182.419C5.09796 182.339 5.27274 182.226 5.31299 182.201C5.35832 182.172 5.40298 182.144 5.44678 182.117C5.53461 182.063 5.61961 182.012 5.70166 181.964C5.86575 181.868 6.01973 181.785 6.16357 181.709C6.73796 181.408 7.17158 181.228 7.54248 181.084C7.91176 180.942 8.21593 180.842 8.48975 180.758C8.64894 180.709 8.7 180.696 8.77783 180.674C8.851 180.654 8.92233 180.634 8.9917 180.616C9.26919 180.543 9.52067 180.483 9.76221 180.431C9.99354 180.38 10.2673 180.326 10.4341 180.296C10.5942 180.267 10.7535 180.24 10.9126 180.214C11.2307 180.162 11.5513 180.114 11.8813 180.067C12.161 180.029 12.4033 180 12.6743 179.967C13.845 179.822 14.6864 179.748 15.7466 179.647C17.6181 179.482 19.5834 179.332 21.3979 179.205C34.3576 178.329 47.0838 177.616 59.9067 176.638C59.5147 175.447 59.0767 174.297 58.5933 173.2C58.5829 173.175 58.5715 173.151 58.561 173.126C58.0694 173.073 57.5246 173.013 56.7808 172.919C56.5096 172.884 56.2256 172.847 55.9224 172.806C55.5619 172.756 55.0759 172.684 54.5669 172.604C54.0481 172.521 53.4633 172.422 52.7407 172.286C51.5705 172.055 50.1602 171.799 47.4253 171.021C47.0781 170.92 46.705 170.809 46.3013 170.683C45.7957 170.519 45.8435 170.553 44.2905 170.012C41.7081 168.993 38.3851 168.098 31.3325 163.349C26.2297 158.443 5.4108 148.39 10.0122 110.497C13.6269 93.8922 23.0558 84.9191 28.5864 80.4189C34.4809 75.8061 38.4147 74.1367 41.3618 72.8398C44.2275 71.6352 46.5619 70.9463 47.7104 70.6201C48.3081 70.4511 48.8483 70.3088 49.3442 70.1846C50.3355 69.9367 51.1546 69.7581 51.8696 69.6133C53.2941 69.3269 54.3177 69.1686 55.1753 69.0449C55.6022 68.984 55.9834 68.9337 56.3325 68.8906C56.5839 68.8596 56.7483 68.8405 56.9409 68.8184C57.3113 68.776 57.6455 68.7406 57.9546 68.71C58.5721 68.649 59.0928 68.6058 59.5659 68.5693C60.3979 68.506 60.844 68.4773 61.4048 68.4443C61.6679 68.4291 61.9381 68.4153 62.1714 68.4033C62.3649 68.3931 62.556 68.3832 62.7446 68.374C64.3499 68.2986 65.4459 68.2629 66.5923 68.2266C68.8681 68.1571 70.771 68.1145 72.7544 68.0752C80.5306 67.9267 87.8637 67.8622 95.3765 67.8135C119.644 67.6106 144.906 67.824 169.821 68.0605C170.164 67.3959 170.714 66.8278 171.6 66.4414C175.6 64.6932 179.428 69.3662 186.098 67.4355C189.777 66.3484 190.721 64.0224 193.009 62.2119C192.573 62.0141 192.165 61.8336 191.78 61.6689C189.396 60.6572 187.646 60.0927 186.715 59.7969C185.942 59.5535 185.316 59.3747 184.784 59.2285C183.742 58.9431 182.949 58.7613 182.623 58.6875C181.882 58.5206 181.413 58.4308 181.186 58.3887C182.024 58.5211 183.398 58.7169 184.738 58.9004C187.828 59.3225 191.2 59.7656 194.628 60.2314C195.219 60.3113 195.81 60.3927 196.402 60.4736C198.092 59.9657 200.327 59.6805 203.443 59.7627C204.97 59.8059 206.428 59.8508 208.009 59.9121C215.544 60.1945 223.587 60.6836 231.86 61.3203C231.915 61.1048 231.973 60.8921 232.034 60.6826C235.711 48.5185 241.283 44.8383 244.078 42.2744C245.576 41.0694 246.932 40.1855 247.757 39.6758C248.176 39.4164 248.563 39.1889 248.923 38.9834C251.767 37.3936 253.192 36.8896 254.383 36.416C255.292 36.0716 255.711 35.9291 256.244 35.75C256.742 35.5841 257.174 35.4486 257.572 35.3291C257.879 35.2363 258.135 35.1625 258.396 35.0889C259.479 34.7856 260.161 34.6261 260.861 34.4756C262.206 34.1909 263.297 34.0394 264.362 33.9463C266.47 33.7665 268.562 33.8168 270.567 34.0938C274.706 34.6257 278.91 35.9897 283.347 38.165C290.395 41.68 287.187 47.5087 299.585 45.5586C301.22 45.3051 303.157 44.9109 305.428 44.3633C302.837 42.1085 300.591 40.7736 299.729 40.2695C295.472 37.9787 293.629 37.3553 292.497 37.0703C292.867 37.1229 293.254 37.1759 293.647 37.2256C297.142 37.6708 301.31 38.0342 305.558 38.3301C308.252 38.5156 311.008 38.6726 313.824 38.8066C315.24 35.6326 315.441 31.9261 320.49 29.7744C328.413 26.4125 337.659 25.1755 347.286 24.6377C352.113 24.3676 356.968 24.2797 361.906 24.1865C364.329 24.1464 366.829 24.0972 369.386 24.0332C370.757 23.9942 371.865 23.9691 373.806 23.8955C374.214 23.8888 374.92 23.8377 376.335 23.8154C377.188 23.8274 377.807 23.7015 381.031 24.042C381.899 24.1529 382.986 24.2949 384.748 24.7266C384.803 24.7403 384.86 24.7551 384.917 24.7695C384.945 24.7767 384.973 24.7837 385.001 24.791C385.102 24.8168 385.235 24.8529 385.356 24.8857C385.852 25.0201 386.404 25.1817 387.028 25.3896C387.902 25.6852 388.918 26.0564 390.15 26.6289C400.492 24.9569 410.845 23.4527 421.789 19.9473C436.401 15.2468 451.316 5.82611 466.659 0.777344C469.005 2.52242 471.805 3.57197 474.747 4.15137C481.067 5.32867 488.501 4.33384 495.986 2.76758C499.654 1.99853 503.637 1.02341 506.577 0.265625C506.75 0.220577 506.904 0.178989 507.038 0.143555C507.201 0.100439 507.335 0.0644655 507.427 0.0390625C507.494 0.0206647 507.551 0.00444151 507.566 0C507.554 0.0032148 507.518 0.013249 507.45 0.0332031ZM400.687 156.249C397.948 156.249 394.455 156.744 392.004 157.11C389.078 157.548 385.617 158.131 382.176 158.72C371.405 160.562 364.235 160.805 355.663 161.778L353.928 161.983C344.434 163.152 336.657 169.138 338.338 168.142C334.925 170.165 331.355 173.562 329.458 178.673C327.641 183.568 328.107 188.031 328.84 190.969C330.106 196.039 333.073 199.994 334.155 201.444C334.915 202.463 335.697 203.441 336.284 204.172C336.84 204.865 337.24 205.364 337.588 205.813C337.719 206.952 337.799 208.905 337.613 211.933C337.489 213.952 337.284 216.018 337.053 218.286C336.841 220.373 336.573 222.933 336.446 225.235C336.235 229.063 335.728 242.554 338.565 260.609C339.799 268.462 343.859 276.253 352.054 280.675C359.116 284.485 366.337 284.116 370.521 283.557C374.983 282.96 379.193 281.659 381.733 280.864C384.178 280.099 384.989 279.867 385.054 279.822C389.252 279.436 401.182 279.087 411.49 279.673L411.843 279.693L412.198 279.699C419.735 279.83 426.231 279.616 430.599 279.129C432.011 279.061 434.29 279.053 437.442 279.053C447.383 279.052 455.442 270.994 455.442 261.053C455.442 251.112 447.382 243.053 437.442 243.053C434.512 243.053 430.72 243.044 427.926 243.223L427.376 243.258L426.831 243.326C424.985 243.558 420.241 243.824 413.085 243.708C401.043 243.052 386.837 243.415 380.75 244.071C378.358 244.329 376.162 244.936 374.937 245.289C374.306 245.471 373.622 245.679 372.966 245.883C372.864 244.829 372.777 243.808 372.701 242.824C374.034 242.563 375.49 242.262 376.848 241.981C378.92 241.553 380.967 241.132 382.854 240.78C388.722 239.687 394.484 237.589 399.99 234.417C400.439 234.393 401.117 234.381 402.087 234.418C403.646 234.478 405.353 234.627 407.607 234.828C409.667 235.012 412.305 235.251 414.904 235.339L416.462 235.392L418.006 235.176C420.189 234.871 421.89 234.401 423.058 234.044C423.248 233.986 423.425 233.929 423.565 233.885C423.579 233.883 423.593 233.881 423.608 233.879C423.818 233.848 424.095 233.808 424.407 233.759C425.774 233.543 427.463 233.222 429.626 232.638C439.223 230.044 444.899 220.161 442.306 210.564C439.712 200.968 429.83 195.29 420.233 197.884C419.503 198.081 419.099 198.151 418.804 198.197C418.429 198.256 418.507 198.24 417.833 198.341C417.492 198.392 416.943 198.476 416.289 198.605L415.602 198.751C414.893 198.911 414.274 199.086 413.807 199.225C412.928 199.158 411.944 199.071 410.802 198.97C408.745 198.786 406.1 198.545 403.466 198.444C399.174 198.28 390.818 198.178 383.256 202.493L382.527 202.925C380.348 204.262 378.26 205.017 376.259 205.39C375.402 205.549 374.531 205.718 373.671 205.889C373.546 202.848 373.19 199.572 372.399 196.314C377.319 195.798 382.836 195.129 388.245 194.204C391.709 193.612 394.822 193.089 397.325 192.715C398.575 192.528 399.555 192.397 400.276 192.315C400.702 192.267 400.922 192.25 400.979 192.245C410.785 192.089 418.687 184.092 418.687 174.249C418.687 164.464 410.878 156.502 401.152 156.255L400.687 156.249ZM107.287 277.46C105.353 277.543 103.405 277.679 101.437 277.885C98.9197 278.189 99.4091 280.073 99.5044 281.633C100.455 281.211 101.639 280.642 103.184 279.813C104.311 278.959 105.604 278.437 107.287 277.46ZM112.438 261.184C112.193 261.167 111.97 261.196 111.875 261.246C111.782 261.295 111.765 261.388 112.186 261.39C112.419 261.353 112.621 261.38 113.064 261.303C112.849 261.236 112.639 261.195 112.438 261.184ZM227.08 88.9824C220.114 89.6891 215.58 90.3672 209 90.3057L206.297 90.2803L203.707 91.0488C199.845 92.1956 195.635 93.4833 191.645 94.6045C189.68 95.1568 187.926 95.6233 186.463 95.9736C186.397 95.9896 186.331 96.0033 186.266 96.0186C183.432 94.2077 180.059 93.1689 176.446 93.1973C166.505 93.2759 158.51 101.398 158.588 111.339C158.619 115.157 159.32 124.494 159.719 131.649C160.188 140.065 160.914 149.09 160.629 156.55C160.32 164.672 160.96 175.307 161.226 182.292C161.491 189.262 161.984 195.927 162.138 203.272C162.212 206.758 162.172 210.023 162.128 213.551C162.086 217.001 162.039 220.75 162.136 224.706C162.195 227.116 162.254 230.905 162.767 234.333C163.224 237.387 164.521 244.139 170.134 249.464L172.398 251.612L175.254 252.872C184.123 256.787 193.742 257.797 203.248 255.782L205.047 255.4L206.733 254.663C212.027 252.345 215.736 248.622 218.535 244.255C223.899 235.886 221.462 224.752 213.093 219.388C208.457 216.416 202.973 215.839 198.091 217.337C198.1 216.256 198.112 215.147 198.126 213.993C198.169 210.538 198.219 206.691 198.131 202.515C198.104 201.22 198.06 199.869 198.01 198.492C198.286 198.41 198.717 198.283 199.345 198.111C200.603 197.767 202.228 197.35 204.27 196.837L204.871 196.686L205.458 196.493C208.853 195.387 210.325 194.843 212.204 194.48C213.871 194.54 216.557 194.791 220.578 195.204C230.467 196.22 239.307 189.027 240.323 179.138C241.339 169.249 234.146 160.409 224.257 159.393C220.344 158.99 214.675 158.372 210.327 158.479L209.254 158.507L208.194 158.66C203.329 159.364 199.366 160.587 196.542 161.521C196.541 160.266 196.56 159.063 196.603 157.922C196.953 148.75 196.145 137.788 195.731 130.765C197.701 130.278 199.649 129.749 201.383 129.262C204.765 128.312 208.405 127.219 211.499 126.293C218.771 126.184 224.786 125.431 229.616 124.917C230.364 124.961 231.464 125.064 233.248 125.247C243.136 126.263 251.978 119.07 252.994 109.181C254.01 99.2918 246.816 90.4519 236.927 89.4355C234.983 89.2358 231.845 88.8944 228.913 88.8916L227.995 88.8906L227.08 88.9824ZM126.084 98.0527C118.492 86.746 105.665 87.637 100.873 88.4941C95.5828 89.4403 90.4454 91.6736 86.229 94.4463C86.0105 94.5015 85.7383 94.5677 85.3657 94.6602C84.734 94.817 83.7584 95.0603 82.7261 95.3652L78.9741 96.4736L76.02 99.041C74.0806 100.726 72.8286 102.493 72.0972 103.678C64.3602 106.356 59.2019 114.091 60.1011 122.581C60.616 127.442 62.9283 135.078 64.9517 140.87C66.9371 146.554 68.5625 153.674 70.1626 160.35C70.9351 163.573 71.5047 166.675 72.1138 170.076C72.694 173.316 73.3565 177.11 74.2485 180.838C74.7057 182.749 74.9693 185.009 75.4165 188.897C75.8086 192.307 76.3579 197.083 77.6089 201.871C78.8101 206.468 79.6766 213.707 80.7153 221.764C81.1998 225.521 81.7694 229.665 82.4604 233.26C82.8053 235.054 83.2403 237.029 83.8022 238.921C84.2516 240.434 85.2263 243.491 87.2153 246.418C92.1202 253.636 99.744 255.291 104.849 254.956C109.4 254.657 113.036 252.917 115.408 251.354C121.317 247.459 126.528 242.853 131.674 236.436C138.411 228.033 141.331 220.344 144.316 210.109C148.166 196.906 148.858 186.07 149 144.513C149.027 136.281 147.969 129.337 145.662 123.031C143.66 117.561 140.982 113.345 138.681 110.068L137.721 108.721L137.371 108.244C133.722 103.381 129.213 100.353 127.562 99.1631C126.761 98.5857 126.309 98.2317 126.084 98.0527ZM296.001 79.1592C284.991 76.718 276.809 82.0622 272.733 85.7148C270.697 87.539 269.119 89.4091 268.209 90.5068C267.191 91.7371 267.051 91.9122 267.101 91.8662L266.756 92.2227C257.859 101.591 258.036 113.473 258.285 118.981C258.358 120.613 258.482 122.188 258.584 123.478C258.695 124.864 258.78 125.891 258.836 126.882C258.96 129.033 258.826 129.405 258.908 129.021C257.179 137.145 254.803 153.201 256.568 166.219C257.85 175.674 263.604 181.797 267.685 185.211C271.555 188.448 276.341 191.157 278.499 192.464C280.827 193.874 283.155 194.807 285.369 195.41C285.19 197.466 284.964 199.808 284.693 202.467C284.627 203.111 284.436 203.833 283.59 205.225C283.114 206.009 282.504 206.883 281.598 208.118C280.913 209.052 279.779 210.565 278.748 212.033C278.579 212.143 278.286 212.323 277.823 212.56C277.049 212.955 276.033 213.403 274.592 213.98C274.388 214.062 274.189 214.139 273.995 214.216C270.577 213.66 267.871 213.016 265.145 212.321C261.207 206.947 254.425 203.976 247.426 205.235C237.642 206.997 231.139 216.357 232.901 226.141C233.172 227.645 233.833 231.324 235.928 235.016C238.509 239.561 242.315 242.641 246.501 244.494L248.08 245.193L249.761 245.579C253.91 246.531 262.44 249.189 274.018 250.563L278.493 251.095L282.692 249.454C285.463 248.371 290.19 246.665 294.189 244.624C298.506 242.421 303.925 238.931 308.042 232.958C309.682 230.58 319.071 220.197 320.507 206.123C321.263 198.72 322.091 190.421 321.746 183.969C321.586 180.986 321.106 175.924 318.626 171.134C317.247 168.469 314.908 165.225 311.057 162.782C307.289 160.392 303.205 159.49 299.45 159.561L298.703 159.588C298.027 159.624 297.432 159.685 296.964 159.743C296.492 159.802 296.068 159.867 295.725 159.924C295.329 159.989 294.913 160.064 294.581 160.126C294.05 159.806 293.551 159.501 293.025 159.167C292.625 158.913 292.284 158.685 291.99 158.485C291.673 151.703 292.85 142.477 294.119 136.513C294.453 134.941 294.652 133.39 294.765 131.917C297.722 133.766 301.247 134.777 304.995 134.631C314.928 134.244 322.667 125.879 322.281 115.945C322.135 112.211 321.167 102.596 316.115 93.6289L315.614 92.7627L315.359 92.3457C310.305 84.2079 302.282 80.8423 297.462 79.5215L296.528 79.2803L296.001 79.1592ZM103.532 126.128C104.768 127.128 105.823 127.87 106.512 128.367C107.946 129.401 108.5 129.846 108.658 129.97C110.554 132.616 111.324 133.955 111.854 135.403C112.378 136.834 113.017 139.38 113 144.391C112.914 170.003 112.542 182.234 111.792 189.522C111.588 188.2 111.397 186.661 111.181 184.784C110.818 181.628 110.332 176.94 109.26 172.461C108.66 169.954 108.187 167.286 107.55 163.73C106.943 160.336 106.214 156.308 105.171 151.959C103.788 146.186 101.677 136.838 98.938 128.998C98.8787 128.828 98.8205 128.658 98.7622 128.489C98.8555 128.381 98.9477 128.272 99.0386 128.163C100.37 127.687 101.924 127.033 103.532 126.128ZM391.539 41.4727C386.972 38.0059 378.173 32.0993 366.129 32.5215C356.243 32.8682 344.264 34.3854 343.493 34.4453C333.83 35.1925 326.542 43.4386 326.893 53.0361C323.788 56.2705 321.88 60.6625 321.88 65.5C321.88 72.948 322.909 90.3839 323.621 96.5967C323.927 99.2678 324.429 102.178 324.817 104.51C325.239 107.045 325.608 109.347 325.867 111.642C326.505 117.316 326.866 124.618 327.308 130.295L327.333 130.597L327.366 130.897C327.433 131.499 327.509 132.031 327.571 132.435C327.623 132.78 327.697 133.232 327.723 133.399C327.798 133.876 327.815 134.025 327.824 134.121C327.865 134.591 327.88 135.452 327.88 137.5C327.88 145.63 333.271 152.5 340.672 154.733C343.107 155.962 345.857 156.655 348.77 156.655C348.83 156.655 348.884 156.655 348.932 156.655C351.125 157.081 353.176 157.21 354.054 157.27C356.167 157.412 358.667 157.493 361.299 157.5C366.428 157.513 373.009 157.247 378.861 156.31L382.012 155.805L384.797 154.247C388.056 152.425 396.838 147.899 402.153 139.664C403.3 137.887 406.088 133.801 407.768 131.049C409.199 128.705 412.632 123.094 413.34 116.752C414.277 108.366 414.072 95.6673 412.108 86.8398C411.257 83.0142 410.147 77.8576 408.382 72.8926C408.062 71.9925 407.921 71.2128 407.15 68.1143C406.586 65.8484 405.52 61.6674 403.304 57.6387C403.098 57.2646 402.872 56.804 402.376 55.7725C401.956 54.8968 401.289 53.5015 400.493 52.0635C398.83 49.0605 396.133 44.9606 391.539 41.4727ZM406.033 140.011C406.398 140.75 406.726 141.579 407.08 142.455C408.829 146.648 409.109 152.221 410.887 153.683C412.404 154.811 413.939 154.698 415.368 153.262C415.584 153.026 415.819 152.769 416.108 152.262C416.255 151.993 416.421 151.649 416.511 151.143C416.612 150.628 416.538 149.91 416.276 149.391C415.718 148.334 415.094 148.113 414.723 147.911C414.327 147.73 414.02 147.643 413.712 147.553C412.584 147.25 411.688 147.001 410.792 146.215C407.71 143.634 415.627 142.107 407.546 140.234C407.085 140.135 406.578 140.063 406.033 140.011ZM17.5562 142.979C16.9889 142.955 17.0065 142.984 17.1157 143.008C17.3787 143.061 18.0714 143.124 18.895 143.179C19.301 143.204 19.715 143.228 20.1362 143.252C19.8898 143.216 19.6715 143.188 19.4761 143.162C18.4618 143.036 17.9109 143 17.5562 142.979ZM367.292 68.5566C367.654 68.7137 368.212 69.0225 369.065 69.6279C369.267 70.0025 369.505 70.4833 369.93 71.3682C370.312 72.1621 370.932 73.4606 371.655 74.791C371.603 74.6926 371.799 75.1366 372.215 76.8096C372.332 77.2793 372.446 77.7512 372.587 78.3389C372.721 78.8945 372.879 79.5439 373.048 80.21C373.381 81.5181 373.836 83.1921 374.46 84.9492C375.344 87.4347 375.998 90.3023 376.967 94.6582C377.785 98.3356 378.108 105.73 377.706 111.154C377.542 111.448 377.326 111.826 377.041 112.293C376.428 113.296 375.689 114.426 374.782 115.791C374.008 116.955 373.05 118.383 372.15 119.768C372.05 119.854 371.88 119.993 371.619 120.182C371.207 120.479 370.739 120.784 370.167 121.132C367.89 121.347 365.314 121.466 362.781 121.493C362.483 117.109 362.105 111.738 361.641 107.615C361.266 104.279 360.752 101.142 360.328 98.5967C359.87 95.8473 359.563 94.0335 359.387 92.499C358.921 88.4267 358.176 76.4515 357.949 69.1143C360.677 68.8596 363.732 68.6333 367.169 68.5078C367.201 68.5199 367.243 68.535 367.292 68.5566ZM438.593 104.903C438.62 104.903 438.646 104.938 438.127 104.914C438.355 104.9 438.524 104.895 438.593 104.903ZM68.6167 89.5205C68.3571 89.4984 68.473 89.5349 68.6274 89.5703C68.9165 89.6405 69.5019 89.7402 70.064 89.832C70.3411 89.8766 70.6265 89.9181 70.9175 89.9629C70.3553 89.8243 69.9721 89.7475 69.6616 89.6855C69.5487 89.6636 69.4476 89.6433 69.3569 89.627C69.2942 89.616 69.2449 89.6088 69.1948 89.6006C69.0966 89.5846 69.0113 89.5711 68.938 89.5605C68.7918 89.5395 68.6891 89.5275 68.6167 89.5205ZM423.334 81.6562C421.601 81.6997 419.924 81.7184 418.287 81.7285C418.185 83.0069 418.193 84.3503 418.364 85.7188C418.961 85.568 419.576 85.4194 420.207 85.2646C421.826 84.1124 423.029 82.803 423.334 81.6562ZM512.413 71.4443C515.67 72.0417 516.994 71.9887 518.128 72.0537C518.839 72.0711 518.91 72.0673 519.157 72.0684C519.37 72.068 519.559 72.0666 519.728 72.0635C520.065 72.0572 520.328 72.0466 520.542 72.0371C520.681 72.0309 520.801 72.0205 520.903 72.0146C519.977 72.093 518.524 72.2275 517.338 72.3037C514.969 72.4764 513.561 72.0396 512.413 71.4443ZM521.539 71.9697C521.497 71.9745 521.425 71.9819 521.309 71.9912C521.251 71.9959 521.115 72.0024 520.903 72.0146C521.145 71.9942 521.352 71.9753 521.508 71.9648C521.571 71.9615 521.623 71.9599 521.539 71.9697ZM504.45 69.0898C505.272 69.1004 506.181 69.1451 507.183 69.2285C509.702 69.4622 510.803 70.6101 512.413 71.4443C512.002 71.369 511.56 71.286 511.084 71.1885C509.993 70.9475 508.691 70.6226 507.026 70.0635C506.61 69.9231 506.169 69.7664 505.703 69.5898C505.47 69.5018 505.229 69.4075 504.983 69.3086C504.859 69.2589 504.735 69.2089 504.608 69.1562C504.555 69.1344 504.503 69.1121 504.45 69.0898ZM181.126 58.3779C181.144 58.3811 181.164 58.3846 181.186 58.3887C181.09 58.3735 181.001 58.3611 180.919 58.3477C180.746 58.3189 180.623 58.2958 180.716 58.3086C180.755 58.3138 180.889 58.3346 181.126 58.3779ZM518.614 30.5645C518.801 30.5643 518.985 30.567 519.195 30.5781C519.336 30.5849 519.609 30.591 519.982 30.6455C520.179 30.6762 520.419 30.7149 520.793 30.8311C520.888 30.8608 520.992 30.8972 521.107 30.9424C521.136 30.9537 521.165 30.9649 521.196 30.9775C521.211 30.9838 521.226 30.9904 521.242 30.9971C521.264 31.0066 521.337 31.038 521.387 31.0615C521.608 31.1649 521.868 31.304 522.172 31.5254C522.756 31.9387 523.653 32.8688 523.917 34.2441C524.195 35.6188 523.713 36.8128 523.326 37.4072C522.921 38.0346 522.58 38.3164 522.327 38.5273C522.266 38.5763 522.191 38.6315 522.156 38.6572C522.141 38.6681 522.126 38.6792 522.112 38.6895C522.083 38.71 522.053 38.7288 522.026 38.7471C521.917 38.8201 521.823 38.8783 521.738 38.9268C521.568 39.023 521.435 39.086 521.319 39.1387C521.092 39.2406 520.906 39.3063 520.764 39.3535C519.315 39.7578 518.615 39.766 517.581 39.8691C515.677 40.0088 513.951 39.9165 512.153 39.6426C507.967 38.9526 505.561 36.4197 503.657 33.3633C504.219 33.1949 504.788 33.0265 505.366 32.8633C508.92 31.8607 512.669 30.9701 516.573 30.6484C516.831 30.628 517.073 30.6123 517.299 30.6016C517.585 30.585 517.877 30.5728 518.133 30.5693C518.2 30.5683 518.256 30.5681 518.331 30.5674C518.426 30.5653 518.52 30.5646 518.614 30.5645ZM484.98 19.5693C497.722 17.4928 499.492 26.6804 503.657 33.3633C497.233 35.2879 491.851 37.4544 488.683 37.7451C487.245 37.8751 485.772 38.006 484.269 38.1377C483.413 38.2108 482.562 38.2797 481.718 38.3486C481.294 34.5663 481.43 30.8377 482.283 27.6074C483.003 24.4435 483.946 21.8001 484.98 19.5693ZM289.634 36.5479C289.4 36.4789 289.222 36.3168 291.034 36.7031C291.492 36.8613 291.894 36.9188 292.497 37.0703C291.223 36.8897 290.139 36.7005 289.634 36.5479Z" fill="#818181"/>
</svg>
